<svg width="1921" height="88" viewBox="0 0 1921 88" fill="none" xmlns="http://www.w3.org/2000/svg">
<g filter="url(#filter0_i_0_40)">
<rect width="1920" height="88" transform="translate(0.0476074)" fill="#F6F5F4"/>
<path d="M379.477 44.8636H388.384V53.5H384.713L384.275 49.8076C383.858 51.1288 383.114 52.1093 382.043 52.749C380.972 53.3887 379.664 53.7086 378.121 53.7086C376.716 53.7086 375.464 53.3957 374.366 52.7699C373.281 52.144 372.426 51.247 371.8 50.0788C371.188 48.9106 370.882 47.5477 370.882 45.9901C370.882 43.5007 371.626 41.5328 373.114 40.0864C374.602 38.6401 376.918 37.9169 380.061 37.9169C381.855 37.9169 383.433 38.2089 384.796 38.793C386.173 39.3772 387.341 40.2811 388.301 41.505C387.675 41.8248 386.451 42.4646 384.629 43.4242L384.108 43.7162C383.565 43.1738 382.933 42.7705 382.21 42.5063C381.486 42.2281 380.721 42.0891 379.915 42.0891C378.58 42.0891 377.585 42.4437 376.932 43.153C376.278 43.8483 375.951 44.7106 375.951 45.7397C375.951 46.8523 376.299 47.7493 376.994 48.4308C377.704 49.1123 378.781 49.453 380.228 49.453C380.854 49.453 381.459 49.3626 382.043 49.1818C382.641 49.001 383.141 48.6881 383.545 48.243H379.477V44.8636ZM394.537 45.1556C394.523 45.9901 394.516 47.2695 394.516 48.994C394.516 51.0662 394.53 52.5682 394.558 53.5H389.635L389.656 51.1427C389.684 48.556 389.697 46.5603 389.697 45.1556C389.697 43.8205 389.684 41.9291 389.656 39.4815L389.635 37.2285H394.558C394.53 39.2033 394.516 40.8166 394.516 42.0682C394.516 43.4589 394.523 44.4881 394.537 45.1556ZM402.535 53.7086C400.157 53.7086 398.405 53.1662 397.278 52.0815C396.166 50.9828 395.61 49.5434 395.61 47.7632C395.61 46.0248 396.166 44.6132 397.278 43.5285C398.405 42.4437 400.157 41.9013 402.535 41.9013C404.135 41.9013 405.47 42.1656 406.541 42.694C407.625 43.2086 408.425 43.9109 408.94 44.801C409.454 45.6772 409.712 46.6646 409.712 47.7632C409.712 49.5573 409.114 50.9967 407.918 52.0815C406.735 53.1662 404.941 53.7086 402.535 53.7086ZM402.619 50.1623C403.523 50.1623 404.197 49.9467 404.642 49.5156C405.087 49.0844 405.31 48.5073 405.31 47.7841C405.31 47.1026 405.087 46.5464 404.642 46.1152C404.197 45.6702 403.523 45.4477 402.619 45.4477C401.715 45.4477 401.054 45.6632 400.637 46.0944C400.22 46.5255 400.011 47.0887 400.011 47.7841C400.011 48.5073 400.22 49.0844 400.637 49.5156C401.054 49.9467 401.715 50.1623 402.619 50.1623ZM419.815 41.9013C420.747 41.9013 421.574 42.1864 422.298 42.7566C423.035 43.3129 423.605 44.057 424.008 44.9887C424.411 45.9066 424.613 46.8871 424.613 47.9301C424.613 48.9871 424.411 49.9606 424.008 50.8507C423.605 51.7268 423.042 52.4222 422.318 52.9368C421.595 53.4513 420.782 53.7086 419.878 53.7086C418.821 53.7086 417.903 53.4861 417.124 53.0411C416.345 52.5821 415.761 51.8659 415.372 50.8924L414.767 53.5H410.761C410.845 50.8854 410.887 48.1805 410.887 45.3851C410.887 42.5619 410.845 39.857 410.761 37.2702H415.476L415.413 39.8361C415.344 41.644 415.309 43.2573 415.309 44.6758C415.685 43.7301 416.255 43.0348 417.02 42.5897C417.799 42.1308 418.73 41.9013 419.815 41.9013ZM417.687 50.204C418.355 50.204 418.883 49.9815 419.273 49.5364C419.662 49.0914 419.857 48.5142 419.857 47.805C419.857 47.1652 419.641 46.6507 419.21 46.2613C418.793 45.8579 418.271 45.6563 417.646 45.6563C417.326 45.6563 416.992 45.7328 416.644 45.8858C416.297 46.0248 415.998 46.2613 415.747 46.595C415.497 46.9149 415.372 47.3182 415.372 47.805C415.372 48.6672 415.566 49.2861 415.956 49.6616C416.345 50.0232 416.922 50.204 417.687 50.204ZM439.24 50.0371C439.24 50.5099 439.295 50.8437 439.406 51.0384C439.518 51.2331 439.74 51.3722 440.074 51.4556L439.991 53.4166C439.546 53.4861 439.156 53.5348 438.822 53.5626C438.502 53.5904 438.071 53.6043 437.529 53.6043C436.333 53.6043 435.54 53.3401 435.151 52.8116C434.761 52.2692 434.567 51.5808 434.567 50.7464V50.2248C434.163 51.3652 433.572 52.2136 432.794 52.7699C432.029 53.3262 431.048 53.6043 429.852 53.6043C428.461 53.6043 427.411 53.3262 426.702 52.7699C426.007 52.2136 425.659 51.3861 425.659 50.2874C425.659 49.3834 425.958 48.6742 426.556 48.1596C427.154 47.645 428.079 47.2904 429.331 47.0957C428.274 46.3447 427.217 45.6911 426.16 45.1348C426.994 44.0778 427.947 43.2781 429.018 42.7358C430.089 42.1795 431.389 41.9013 432.919 41.9013C435.06 41.9013 436.646 42.3672 437.675 43.299C438.718 44.2169 439.24 45.6354 439.24 47.5546V50.0371ZM433.357 45.5728C432.647 45.5728 432.022 45.6911 431.479 45.9275C430.937 46.1639 430.45 46.5185 430.019 46.9914C430.853 46.894 431.897 46.8454 433.148 46.8454C433.663 46.8454 434.024 46.7828 434.233 46.6576C434.442 46.5325 434.546 46.3725 434.546 46.1778C434.546 46.0109 434.442 45.8719 434.233 45.7606C434.024 45.6354 433.732 45.5728 433.357 45.5728ZM431.166 50.204C431.945 50.204 432.647 50.0579 433.273 49.7659C433.899 49.4599 434.33 49.0636 434.567 48.5768V48.0344C434.233 48.2013 433.864 48.3334 433.461 48.4308C433.058 48.5142 432.571 48.5977 432.001 48.6811L431.25 48.8063C430.471 48.9593 430.082 49.2235 430.082 49.599C430.082 50.0023 430.443 50.204 431.166 50.204ZM445.815 45.1556C445.801 45.9901 445.794 47.2695 445.794 48.994C445.794 51.0662 445.808 52.5682 445.836 53.5H440.913L440.934 51.1427C440.961 48.556 440.975 46.5603 440.975 45.1556C440.975 43.8205 440.961 41.9291 440.934 39.4815L440.913 37.2285H445.836C445.808 39.2033 445.794 40.8166 445.794 42.0682C445.794 43.4589 445.801 44.4881 445.815 45.1556ZM465.016 42.7358C462.832 42.6662 460.711 42.6245 458.653 42.6106V53.5H453.438V42.6106C451.366 42.6245 449.252 42.6662 447.096 42.7358V38.355H465.016V42.7358ZM477.143 50.0371C477.143 50.5099 477.199 50.8437 477.31 51.0384C477.421 51.2331 477.644 51.3722 477.977 51.4556L477.894 53.4166C477.449 53.4861 477.059 53.5348 476.726 53.5626C476.406 53.5904 475.975 53.6043 475.432 53.6043C474.236 53.6043 473.444 53.3401 473.054 52.8116C472.665 52.2692 472.47 51.5808 472.47 50.7464V50.2248C472.067 51.3652 471.476 52.2136 470.697 52.7699C469.932 53.3262 468.951 53.6043 467.755 53.6043C466.365 53.6043 465.315 53.3262 464.605 52.7699C463.91 52.2136 463.562 51.3861 463.562 50.2874C463.562 49.3834 463.861 48.6742 464.459 48.1596C465.057 47.645 465.982 47.2904 467.234 47.0957C466.177 46.3447 465.12 45.6911 464.063 45.1348C464.898 44.0778 465.85 43.2781 466.921 42.7358C467.992 42.1795 469.292 41.9013 470.822 41.9013C472.964 41.9013 474.549 42.3672 475.578 43.299C476.621 44.2169 477.143 45.6354 477.143 47.5546V50.0371ZM471.26 45.5728C470.551 45.5728 469.925 45.6911 469.383 45.9275C468.84 46.1639 468.353 46.5185 467.922 46.9914C468.757 46.894 469.8 46.8454 471.051 46.8454C471.566 46.8454 471.928 46.7828 472.136 46.6576C472.345 46.5325 472.449 46.3725 472.449 46.1778C472.449 46.0109 472.345 45.8719 472.136 45.7606C471.928 45.6354 471.636 45.5728 471.26 45.5728ZM469.07 50.204C469.849 50.204 470.551 50.0579 471.177 49.7659C471.802 49.4599 472.234 49.0636 472.47 48.5768V48.0344C472.136 48.2013 471.768 48.3334 471.364 48.4308C470.961 48.5142 470.474 48.5977 469.904 48.6811L469.153 48.8063C468.374 48.9593 467.985 49.2235 467.985 49.599C467.985 50.0023 468.347 50.204 469.07 50.204ZM483.718 45.1556C483.705 45.9901 483.698 47.2695 483.698 48.994C483.698 51.0662 483.712 52.5682 483.739 53.5H478.816L478.837 51.1427C478.865 48.556 478.879 46.5603 478.879 45.1556C478.879 43.8205 478.865 41.9291 478.837 39.4815L478.816 37.2285H483.739C483.712 39.2033 483.698 40.8166 483.698 42.0682C483.698 43.4589 483.705 44.4881 483.718 45.1556ZM499.727 42.0891L494.554 46.8036C496.32 49.307 497.968 51.5391 499.498 53.5H493.97L492.906 51.7894C492.21 50.6351 491.751 49.8841 491.529 49.5364L489.797 51.1219V53.5H484.999C485.111 50.8576 485.166 48.1805 485.166 45.4685C485.166 42.7427 485.111 40.0099 484.999 37.2702H489.797V46.1152C491.146 44.7384 492.419 43.3964 493.615 42.0891H499.727Z" fill="black"/>
<path d="M379.477 44.8636V43.8636H378.477V44.8636H379.477ZM388.384 44.8636H389.384V43.8636H388.384V44.8636ZM388.384 53.5V54.5H389.384V53.5H388.384ZM384.713 53.5L383.72 53.6178L383.824 54.5H384.713V53.5ZM384.275 49.8076L385.268 49.6898L383.321 49.5065L384.275 49.8076ZM382.043 52.749L382.555 53.6075L382.555 53.6075L382.043 52.749ZM374.366 52.7699L373.866 53.6361L373.871 53.6388L374.366 52.7699ZM371.8 50.0788L370.914 50.5428L370.918 50.551L371.8 50.0788ZM373.114 40.0864L373.811 40.8035L373.811 40.8035L373.114 40.0864ZM384.796 38.793L384.402 39.7122L384.406 39.7136L384.796 38.793ZM388.301 41.505L388.756 42.3954L389.837 41.843L389.088 40.8879L388.301 41.505ZM384.629 43.4242L384.163 42.5394L384.152 42.5454L384.141 42.5517L384.629 43.4242ZM384.108 43.7162L383.401 44.4233L383.936 44.9586L384.596 44.5887L384.108 43.7162ZM382.21 42.5063L381.851 43.4396L381.858 43.4427L381.866 43.4456L382.21 42.5063ZM376.932 43.153L377.66 43.8379L377.667 43.8307L376.932 43.153ZM376.994 48.4308L376.294 49.145L376.301 49.1519L376.994 48.4308ZM382.043 49.1818L381.753 48.2246L381.747 48.2265L382.043 49.1818ZM383.545 48.243L384.286 48.9146L385.8 47.243H383.545V48.243ZM379.477 48.243H378.477V49.243H379.477V48.243ZM379.477 45.8636H388.384V43.8636H379.477V45.8636ZM387.384 44.8636V53.5H389.384V44.8636H387.384ZM388.384 52.5H384.713V54.5H388.384V52.5ZM385.706 53.3822L385.268 49.6898L383.282 49.9254L383.72 53.6178L385.706 53.3822ZM383.321 49.5065C382.969 50.622 382.367 51.3906 381.53 51.8905L382.555 53.6075C383.86 52.828 384.746 51.6356 385.228 50.1087L383.321 49.5065ZM381.53 51.8905C380.647 52.418 379.527 52.7086 378.121 52.7086V54.7086C379.802 54.7086 381.297 54.3595 382.555 53.6075L381.53 51.8905ZM378.121 52.7086C376.87 52.7086 375.792 52.4316 374.861 51.9009L373.871 53.6388C375.137 54.3598 376.562 54.7086 378.121 54.7086V52.7086ZM374.866 51.9037C373.952 51.3765 373.225 50.6205 372.681 49.6066L370.918 50.551C371.627 51.8736 372.61 52.9115 373.866 53.6361L374.866 51.9037ZM372.686 49.6148C372.161 48.6136 371.882 47.4153 371.882 45.9901H369.882C369.882 47.6801 370.215 49.2076 370.914 50.5428L372.686 49.6148ZM371.882 45.9901C371.882 43.7128 372.555 42.0247 373.811 40.8035L372.417 39.3693C370.697 41.0409 369.882 43.2885 369.882 45.9901H371.882ZM373.811 40.8035C375.036 39.6131 377.047 38.9169 380.061 38.9169V36.9169C376.789 36.9169 374.169 37.667 372.417 39.3693L373.811 40.8035ZM380.061 38.9169C381.747 38.9169 383.187 39.1914 384.402 39.7122L385.19 37.8739C383.68 37.2265 381.963 36.9169 380.061 36.9169V38.9169ZM384.406 39.7136C385.621 40.229 386.654 41.0257 387.514 42.122L389.088 40.8879C388.028 39.5365 386.726 38.5253 385.187 37.8725L384.406 39.7136ZM387.846 40.6145C387.214 40.9376 385.984 41.5802 384.163 42.5394L385.095 44.3089C386.918 43.3489 388.137 42.712 388.756 42.3954L387.846 40.6145ZM384.141 42.5517L383.619 42.8437L384.596 44.5887L385.118 44.2967L384.141 42.5517ZM384.815 43.0091C384.169 42.3634 383.412 41.881 382.553 41.567L381.866 43.4456C382.453 43.66 382.962 43.9843 383.401 44.4233L384.815 43.0091ZM382.569 41.5729C381.726 41.2489 380.839 41.0891 379.915 41.0891V43.0891C380.604 43.0891 381.247 43.2074 381.851 43.4396L382.569 41.5729ZM379.915 41.0891C378.411 41.0891 377.103 41.4912 376.196 42.4753L377.667 43.8307C378.067 43.3962 378.748 43.0891 379.915 43.0891V41.0891ZM376.203 42.4681C375.361 43.3642 374.951 44.4779 374.951 45.7397H376.951C376.951 44.9433 377.195 44.3325 377.66 43.8379L376.203 42.4681ZM374.951 45.7397C374.951 47.0792 375.379 48.2481 376.294 49.145L377.694 47.7166C377.219 47.2506 376.951 46.6254 376.951 45.7397H374.951ZM376.301 49.1519C377.269 50.0812 378.643 50.453 380.228 50.453V48.453C378.919 48.453 378.138 48.1433 377.687 47.7097L376.301 49.1519ZM380.228 50.453C380.951 50.453 381.656 50.3482 382.338 50.1371L381.747 48.2265C381.261 48.377 380.756 48.453 380.228 48.453V50.453ZM382.332 50.139C383.096 49.9079 383.755 49.4996 384.286 48.9146L382.804 47.5715C382.527 47.8766 382.185 48.0941 381.753 48.2246L382.332 50.139ZM383.545 47.243H379.477V49.243H383.545V47.243ZM380.477 48.243V44.8636H378.477V48.243H380.477ZM394.537 45.1556L395.537 45.1723L395.537 45.1535L395.537 45.1348L394.537 45.1556ZM394.558 53.5V54.5H395.588L395.558 53.4702L394.558 53.5ZM389.635 53.5L388.635 53.4912L388.626 54.5H389.635V53.5ZM389.656 51.1427L388.656 51.132L388.656 51.1339L389.656 51.1427ZM389.656 39.4815L388.656 39.4907L388.656 39.4928L389.656 39.4815ZM389.635 37.2285V36.2285H388.626L388.635 37.2377L389.635 37.2285ZM394.558 37.2285L395.558 37.2426L395.572 36.2285H394.558V37.2285ZM393.537 45.139C393.523 45.9821 393.516 47.2685 393.516 48.994H395.516C395.516 47.2706 395.523 45.998 395.537 45.1723L393.537 45.139ZM393.516 48.994C393.516 51.0672 393.53 52.582 393.558 53.5298L395.558 53.4702C395.53 52.5544 395.516 51.0653 395.516 48.994H393.516ZM394.558 52.5H389.635V54.5H394.558V52.5ZM390.635 53.5088L390.656 51.1516L388.656 51.1339L388.635 53.4912L390.635 53.5088ZM390.656 51.1535C390.684 48.5656 390.697 46.5657 390.697 45.1556H388.697C388.697 46.5549 388.684 48.5464 388.656 51.132L390.656 51.1535ZM390.697 45.1556C390.697 43.8148 390.683 41.919 390.656 39.4701L388.656 39.4928C388.684 41.9393 388.697 43.8262 388.697 45.1556H390.697ZM390.656 39.4722L390.635 37.2192L388.635 37.2377L388.656 39.4907L390.656 39.4722ZM389.635 38.2285H394.558V36.2285H389.635V38.2285ZM393.558 37.2144C393.53 39.1916 393.516 40.81 393.516 42.0682H395.516C395.516 40.8231 395.53 39.215 395.558 37.2426L393.558 37.2144ZM393.516 42.0682C393.516 43.4601 393.523 44.4979 393.537 45.1765L395.537 45.1348C395.523 44.4782 395.516 43.4577 395.516 42.0682H393.516ZM397.278 52.0815L396.576 52.7931L396.585 52.8018L397.278 52.0815ZM397.278 43.5285L396.585 42.8081L396.58 42.8125L397.278 43.5285ZM406.541 42.694L406.098 43.5908L406.105 43.5942L406.112 43.5975L406.541 42.694ZM408.94 44.801L408.074 45.3015L408.077 45.3074L408.94 44.801ZM407.918 52.0815L407.246 51.3407L407.241 51.3447L407.918 52.0815ZM404.642 46.1152L403.935 46.8223L403.941 46.828L403.947 46.8335L404.642 46.1152ZM400.637 46.0944L399.918 45.3989L399.918 45.3989L400.637 46.0944ZM400.637 49.5156L401.356 48.8201L401.356 48.8201L400.637 49.5156ZM402.535 52.7086C400.284 52.7086 398.835 52.1922 397.972 51.3611L396.585 52.8018C397.975 54.1402 400.03 54.7086 402.535 54.7086V52.7086ZM397.981 51.3699C397.086 50.4857 396.61 49.3163 396.61 47.7632H394.61C394.61 49.7704 395.246 51.4799 396.576 52.793L397.981 51.3699ZM396.61 47.7632C396.61 46.2593 397.081 45.1178 397.977 44.2445L396.58 42.8125C395.251 44.1087 394.61 45.7904 394.61 47.7632H396.61ZM397.972 44.2488C398.835 43.4177 400.284 42.9013 402.535 42.9013V40.9013C400.03 40.9013 397.975 41.4697 396.585 42.8082L397.972 44.2488ZM402.535 42.9013C404.031 42.9013 405.203 43.1492 406.098 43.5908L406.983 41.7973C405.736 41.1819 404.239 40.9013 402.535 40.9013V42.9013ZM406.112 43.5975C407.045 44.0402 407.677 44.615 408.074 45.3015L409.805 44.3005C409.173 43.2069 408.206 42.377 406.969 41.7905L406.112 43.5975ZM408.077 45.3074C408.495 46.0176 408.712 46.8277 408.712 47.7632H410.712C410.712 46.5015 410.414 45.3367 409.802 44.2946L408.077 45.3074ZM408.712 47.7632C408.712 49.31 408.208 50.4678 407.246 51.3407L408.589 52.8222C410.019 51.5256 410.712 49.8046 410.712 47.7632H408.712ZM407.241 51.3447C406.317 52.1926 404.813 52.7086 402.535 52.7086V54.7086C405.07 54.7086 407.153 54.1399 408.594 52.8183L407.241 51.3447ZM402.619 51.1623C403.664 51.1623 404.636 50.914 405.338 50.2338L403.947 48.7973C403.759 48.9793 403.382 49.1623 402.619 49.1623V51.1623ZM405.338 50.2338C406.01 49.5827 406.31 48.7289 406.31 47.7841H404.31C404.31 48.2857 404.165 48.5862 403.947 48.7973L405.338 50.2338ZM406.31 47.7841C406.31 46.8618 405.998 46.0363 405.338 45.397L403.947 46.8335C404.177 47.0564 404.31 47.3435 404.31 47.7841H406.31ZM405.349 45.4081C404.648 44.7068 403.672 44.4477 402.619 44.4477V46.4477C403.374 46.4477 403.746 46.6336 403.935 46.8223L405.349 45.4081ZM402.619 44.4477C401.58 44.4477 400.601 44.6933 399.918 45.3989L401.356 46.7898C401.507 46.6332 401.85 46.4477 402.619 46.4477V44.4477ZM399.918 45.3989C399.292 46.0462 399.011 46.8736 399.011 47.7841H401.011C401.011 47.3039 401.148 47.0048 401.356 46.7898L399.918 45.3989ZM399.011 47.7841C399.011 48.7101 399.285 49.5562 399.918 50.211L401.356 48.8201C401.155 48.6126 401.011 48.3044 401.011 47.7841H399.011ZM399.918 50.211C400.601 50.9167 401.58 51.1623 402.619 51.1623V49.1623C401.85 49.1623 401.507 48.9767 401.356 48.8201L399.918 50.211ZM422.298 42.7566L421.678 43.5419L421.687 43.5484L421.695 43.5548L422.298 42.7566ZM424.008 44.9887L423.09 45.386L423.093 45.391L424.008 44.9887ZM424.008 50.8507L424.917 51.2688L424.919 51.2634L424.008 50.8507ZM422.318 52.9368L422.898 53.7515L422.318 52.9368ZM417.124 53.0411L416.616 53.9027L416.628 53.9093L417.124 53.0411ZM415.372 50.8924L416.3 50.521L415.117 47.5639L414.398 50.6664L415.372 50.8924ZM414.767 53.5V54.5H415.561L415.741 53.726L414.767 53.5ZM410.761 53.5L409.762 53.4681L409.729 54.5H410.761V53.5ZM410.761 37.2702V36.2702H409.729L409.762 37.3024L410.761 37.2702ZM415.476 37.2702L416.476 37.2946L416.501 36.2702H415.476V37.2702ZM415.413 39.8361L416.413 39.8745L416.413 39.8605L415.413 39.8361ZM415.309 44.6758H414.309L416.239 45.0449L415.309 44.6758ZM417.02 42.5897L417.523 43.4541L417.527 43.4513L417.02 42.5897ZM419.21 46.2613L418.515 46.9802L418.527 46.992L418.54 47.0034L419.21 46.2613ZM416.644 45.8858L417.016 46.8142L417.031 46.8079L417.047 46.8011L416.644 45.8858ZM415.747 46.595L416.535 47.2113L416.541 47.2033L416.547 47.195L415.747 46.595ZM415.956 49.6616L415.262 50.3814L415.268 50.388L415.275 50.3944L415.956 49.6616ZM419.815 42.9013C420.525 42.9013 421.134 43.1126 421.678 43.5419L422.917 41.9714C422.015 41.2603 420.969 40.9013 419.815 40.9013V42.9013ZM421.695 43.5548C422.281 43.9968 422.749 44.5966 423.09 45.386L424.926 44.5915C424.461 43.5173 423.788 42.629 422.9 41.9584L421.695 43.5548ZM423.093 45.391C423.438 46.177 423.613 47.0199 423.613 47.9301H425.613C425.613 46.7543 425.385 45.6363 424.924 44.5865L423.093 45.391ZM423.613 47.9301C423.613 48.8565 423.437 49.6878 423.097 50.4379L424.919 51.2634C425.386 50.2333 425.613 49.1177 425.613 47.9301H423.613ZM423.1 50.4325C422.763 51.1642 422.307 51.7173 421.739 52.122L422.898 53.7515C423.776 53.127 424.447 52.2894 424.917 51.2688L423.1 50.4325ZM421.739 52.122C421.188 52.5137 420.578 52.7086 419.878 52.7086V54.7086C420.985 54.7086 422.002 54.389 422.898 53.7515L421.739 52.122ZM419.878 52.7086C418.964 52.7086 418.223 52.5172 417.62 52.1728L416.628 53.9093C417.583 54.4549 418.678 54.7086 419.878 54.7086V52.7086ZM417.632 52.1795C417.073 51.8503 416.621 51.3233 416.3 50.521L414.443 51.2638C414.901 52.4085 415.617 53.3139 416.616 53.9026L417.632 52.1795ZM414.398 50.6664L413.793 53.274L415.741 53.726L416.346 51.1184L414.398 50.6664ZM414.767 52.5H410.761V54.5H414.767V52.5ZM411.761 53.5319C411.845 50.906 411.887 48.1904 411.887 45.3851H409.887C409.887 48.1705 409.845 50.8649 409.762 53.4681L411.761 53.5319ZM411.887 45.3851C411.887 42.5521 411.845 39.8364 411.761 37.238L409.762 37.3024C409.845 39.8775 409.887 42.5717 409.887 45.3851H411.887ZM410.761 38.2702H415.476V36.2702H410.761V38.2702ZM414.476 37.2458L414.414 39.8117L416.413 39.8605L416.476 37.2946L414.476 37.2458ZM414.414 39.7977C414.344 41.6151 414.309 43.2416 414.309 44.6758H416.309C416.309 43.273 416.344 41.673 416.413 39.8745L414.414 39.7977ZM416.239 45.0449C416.544 44.2747 416.98 43.77 417.523 43.4541L416.517 41.7254C415.53 42.2996 414.825 43.1856 414.38 44.3068L416.239 45.0449ZM417.527 43.4513C418.124 43.0996 418.873 42.9013 419.815 42.9013V40.9013C418.588 40.9013 417.473 41.162 416.512 41.7282L417.527 43.4513ZM417.687 51.204C418.602 51.204 419.42 50.8863 420.025 50.1949L418.52 48.8779C418.346 49.0766 418.108 49.204 417.687 49.204V51.204ZM420.025 50.1949C420.605 49.5328 420.857 48.7058 420.857 47.805H418.857C418.857 48.3227 418.72 48.65 418.52 48.8779L420.025 50.1949ZM420.857 47.805C420.857 46.9143 420.544 46.1186 419.88 45.5192L418.54 47.0034C418.738 47.1827 418.857 47.4161 418.857 47.805H420.857ZM419.905 45.5423C419.286 44.9437 418.508 44.6563 417.646 44.6563V46.6563C418.034 46.6563 418.3 46.7722 418.515 46.9802L419.905 45.5423ZM417.646 44.6563C417.164 44.6563 416.693 44.7719 416.241 44.9704L417.047 46.8011C417.291 46.6936 417.488 46.6563 417.646 46.6563V44.6563ZM416.273 44.9573C415.736 45.1721 415.295 45.5318 414.947 45.995L416.547 47.195C416.7 46.9908 416.857 46.8776 417.016 46.8142L416.273 44.9573ZM414.96 45.9787C414.546 46.5075 414.372 47.1406 414.372 47.805H416.372C416.372 47.4958 416.448 47.3223 416.535 47.2113L414.96 45.9787ZM414.372 47.805C414.372 48.7824 414.587 49.7312 415.262 50.3814L416.65 48.9417C416.545 48.841 416.372 48.552 416.372 47.805H414.372ZM415.275 50.3944C415.917 50.9903 416.78 51.204 417.687 51.204V49.204C417.065 49.204 416.773 49.056 416.636 48.9288L415.275 50.3944ZM439.406 51.0384L438.538 51.5345L438.538 51.5346L439.406 51.0384ZM440.074 51.4556L441.073 51.4981L441.108 50.6833L440.317 50.4855L440.074 51.4556ZM439.991 53.4166L440.145 54.4046L440.955 54.278L440.99 53.4591L439.991 53.4166ZM438.822 53.5626L438.739 52.566L438.736 52.5663L438.822 53.5626ZM435.151 52.8116L434.338 53.3948L434.346 53.4048L435.151 52.8116ZM434.567 50.2248H435.567L433.624 49.8914L434.567 50.2248ZM432.794 52.7699L432.212 51.9561L432.205 51.9611L432.794 52.7699ZM426.702 52.7699L426.077 53.5508L426.085 53.5567L426.702 52.7699ZM426.556 48.1596L427.208 48.9176L427.208 48.9176L426.556 48.1596ZM429.331 47.0957L429.484 48.0838L431.916 47.7056L429.91 46.2805L429.331 47.0957ZM426.16 45.1348L425.375 44.5151L424.629 45.4594L425.694 46.0197L426.16 45.1348ZM429.018 42.7358L429.47 43.6279L429.479 43.6232L429.018 42.7358ZM437.675 43.299L437.004 44.0404L437.014 44.0497L437.675 43.299ZM431.479 45.9275L431.879 46.8442L431.879 46.8442L431.479 45.9275ZM430.019 46.9914L429.28 46.3176L427.477 48.2947L430.135 47.9847L430.019 46.9914ZM434.233 46.6576L433.718 45.8001L433.718 45.8001L434.233 46.6576ZM434.233 45.7606L433.718 46.6181L433.74 46.6311L433.762 46.6429L434.233 45.7606ZM433.273 49.7659L433.696 50.6721L433.704 50.6683L433.713 50.6643L433.273 49.7659ZM434.567 48.5768L435.466 49.0137L435.567 48.8068V48.5768H434.567ZM434.567 48.0344H435.567V46.4164L434.119 47.14L434.567 48.0344ZM433.461 48.4308L433.664 49.4101L433.68 49.4067L433.696 49.4029L433.461 48.4308ZM432.001 48.6811L431.856 47.6917L431.846 47.6931L431.836 47.6947L432.001 48.6811ZM431.25 48.8063L431.085 47.8199L431.071 47.8223L431.057 47.825L431.25 48.8063ZM438.24 50.0371C438.24 50.5307 438.288 51.0959 438.538 51.5345L440.275 50.5423C440.3 50.586 440.285 50.5812 440.268 50.4777C440.252 50.3817 440.24 50.2383 440.24 50.0371H438.24ZM438.538 51.5346C438.842 52.0668 439.372 52.311 439.831 52.4258L440.317 50.4855C440.271 50.474 440.238 50.4629 440.216 50.4541C440.194 50.4454 440.186 50.44 440.187 50.4407C440.188 50.4417 440.2 50.4495 440.218 50.4669C440.236 50.4847 440.256 50.5098 440.275 50.5423L438.538 51.5346ZM439.075 51.4131L438.991 53.374L440.99 53.4591L441.073 51.4981L439.075 51.4131ZM439.836 52.4285C439.407 52.4956 439.043 52.5408 438.739 52.566L438.905 54.5591C439.27 54.5288 439.684 54.4766 440.145 54.4046L439.836 52.4285ZM438.736 52.5663C438.458 52.5905 438.059 52.6043 437.529 52.6043V54.6043C438.084 54.6043 438.547 54.5903 438.909 54.5588L438.736 52.5663ZM437.529 52.6043C436.402 52.6043 436.046 52.3413 435.956 52.2184L434.346 53.4048C435.034 54.3388 436.264 54.6043 437.529 54.6043V52.6043ZM435.963 52.2284C435.723 51.8943 435.567 51.4243 435.567 50.7464H433.567C433.567 51.7373 433.8 52.6441 434.338 53.3948L435.963 52.2284ZM435.567 50.7464V50.2248H433.567V50.7464H435.567ZM433.624 49.8914C433.271 50.8896 432.785 51.5472 432.212 51.9561L433.375 53.5836C434.36 52.88 435.056 51.8409 435.509 50.5583L433.624 49.8914ZM432.205 51.9611C431.652 52.3636 430.893 52.6043 429.852 52.6043V54.6043C431.203 54.6043 432.405 54.2887 433.382 53.5786L432.205 51.9611ZM429.852 52.6043C428.57 52.6043 427.78 52.344 427.319 51.983L426.085 53.5567C427.043 54.3083 428.352 54.6043 429.852 54.6043V52.6043ZM427.327 51.989C426.924 51.6665 426.659 51.1605 426.659 50.2874H424.659C424.659 51.6117 425.09 52.7607 426.077 53.5507L427.327 51.989ZM426.659 50.2874C426.659 49.6274 426.865 49.2134 427.208 48.9176L425.904 47.4016C425.052 48.1349 424.659 49.1395 424.659 50.2874H426.659ZM427.208 48.9176C427.603 48.5777 428.316 48.2656 429.484 48.0838L429.177 46.1076C427.842 46.3152 426.705 46.7124 425.904 47.4016L427.208 48.9176ZM429.91 46.2805C428.82 45.5059 427.725 44.8285 426.625 44.2499L425.694 46.0197C426.708 46.5536 427.728 47.1835 428.751 47.9109L429.91 46.2805ZM426.945 45.7544C427.7 44.7974 428.543 44.0971 429.47 43.6279L428.566 41.8437C427.351 42.4592 426.288 43.3582 425.375 44.5151L426.945 45.7544ZM429.479 43.6232C430.374 43.158 431.507 42.9013 432.919 42.9013V40.9013C431.27 40.9013 429.803 41.2009 428.557 41.8484L429.479 43.6232ZM432.919 42.9013C434.942 42.9013 436.236 43.3453 437.004 44.0403L438.346 42.5577C437.056 41.3892 435.179 40.9013 432.919 40.9013V42.9013ZM437.014 44.0497C437.769 44.7135 438.24 45.8087 438.24 47.5546H440.24C440.24 45.4621 439.667 43.7202 438.336 42.5483L437.014 44.0497ZM438.24 47.5546V50.0371H440.24V47.5546H438.24ZM433.357 44.5728C432.537 44.5728 431.771 44.7096 431.08 45.0108L431.879 46.8442C432.273 46.6725 432.758 46.5728 433.357 46.5728V44.5728ZM431.08 45.0108C430.398 45.3079 429.798 45.7494 429.28 46.3176L430.758 47.6651C431.102 47.2877 431.476 47.0199 431.879 46.8442L431.08 45.0108ZM430.135 47.9847C430.917 47.8934 431.918 47.8454 433.148 47.8454V45.8454C431.875 45.8454 430.79 45.8947 429.903 45.9981L430.135 47.9847ZM433.148 47.8454C433.683 47.8454 434.287 47.7912 434.747 47.5151L433.718 45.8001C433.759 45.7755 433.75 45.7932 433.635 45.8131C433.528 45.8316 433.369 45.8454 433.148 45.8454V47.8454ZM434.747 47.5151C435.17 47.2614 435.546 46.8145 435.546 46.1778H433.546C433.546 46.0852 433.574 45.9834 433.63 45.8975C433.68 45.8207 433.727 45.7948 433.718 45.8001L434.747 47.5151ZM435.546 46.1778C435.546 45.4954 435.085 45.0815 434.704 44.8782L433.762 46.6429C433.781 46.6531 433.729 46.6301 433.668 46.5483C433.596 46.4525 433.546 46.3202 433.546 46.1778H435.546ZM434.747 44.9031C434.321 44.6471 433.823 44.5728 433.357 44.5728V46.5728C433.491 46.5728 433.586 46.5843 433.648 46.5976C433.71 46.6109 433.727 46.6233 433.718 46.6181L434.747 44.9031ZM431.166 51.204C432.073 51.204 432.922 51.0334 433.696 50.6721L432.85 48.8597C432.373 49.0825 431.818 49.204 431.166 49.204V51.204ZM433.713 50.6643C434.481 50.2887 435.107 49.7528 435.466 49.0137L433.667 48.1399C433.553 48.3743 433.318 48.6312 432.834 48.8675L433.713 50.6643ZM435.567 48.5768V48.0344H433.567V48.5768H435.567ZM434.119 47.14C433.86 47.2695 433.564 47.3772 433.226 47.4587L433.696 49.4029C434.165 49.2897 434.605 49.1331 435.014 48.9289L434.119 47.14ZM433.258 47.4515C432.88 47.5298 432.414 47.61 431.856 47.6917L432.146 49.6706C432.728 49.5853 433.235 49.4987 433.664 49.4101L433.258 47.4515ZM431.836 47.6947L431.085 47.8199L431.414 49.7927L432.165 49.6675L431.836 47.6947ZM431.057 47.825C430.614 47.9121 430.169 48.0494 429.812 48.2917C429.422 48.5568 429.082 48.9951 429.082 49.599H431.082C431.082 49.688 431.056 49.781 431.009 49.8582C430.967 49.9277 430.927 49.9524 430.935 49.9467C430.945 49.9403 430.985 49.9158 431.075 49.8836C431.163 49.8521 431.284 49.8187 431.443 49.7875L431.057 47.825ZM429.082 49.599C429.082 49.8539 429.14 50.1247 429.291 50.3767C429.441 50.6274 429.649 50.8053 429.866 50.9261C430.269 51.1509 430.745 51.204 431.166 51.204V49.204C431.029 49.204 430.935 49.1942 430.875 49.183C430.812 49.1715 430.81 49.1626 430.84 49.1794C430.876 49.1994 430.948 49.2512 431.008 49.3506C431.068 49.4514 431.082 49.5458 431.082 49.599H429.082ZM445.815 45.1556L446.815 45.1723L446.815 45.1535L446.815 45.1348L445.815 45.1556ZM445.836 53.5V54.5H446.866L446.836 53.4702L445.836 53.5ZM440.913 53.5L439.913 53.4912L439.904 54.5H440.913V53.5ZM440.934 51.1427L439.934 51.132L439.934 51.1339L440.934 51.1427ZM440.934 39.4815L439.934 39.4907L439.934 39.4928L440.934 39.4815ZM440.913 37.2285V36.2285H439.904L439.913 37.2377L440.913 37.2285ZM445.836 37.2285L446.836 37.2426L446.85 36.2285H445.836V37.2285ZM444.815 45.139C444.801 45.9821 444.794 47.2685 444.794 48.994H446.794C446.794 47.2706 446.801 45.998 446.815 45.1723L444.815 45.139ZM444.794 48.994C444.794 51.0672 444.808 52.582 444.836 53.5298L446.836 53.4702C446.808 52.5544 446.794 51.0653 446.794 48.994H444.794ZM445.836 52.5H440.913V54.5H445.836V52.5ZM441.913 53.5088L441.934 51.1516L439.934 51.1339L439.913 53.4912L441.913 53.5088ZM441.934 51.1535C441.961 48.5656 441.975 46.5657 441.975 45.1556H439.975C439.975 46.5549 439.962 48.5464 439.934 51.132L441.934 51.1535ZM441.975 45.1556C441.975 43.8148 441.961 41.919 441.934 39.4701L439.934 39.4928C439.962 41.9393 439.975 43.8262 439.975 45.1556H441.975ZM441.934 39.4722L441.913 37.2192L439.913 37.2377L439.934 39.4907L441.934 39.4722ZM440.913 38.2285H445.836V36.2285H440.913V38.2285ZM444.836 37.2144C444.808 39.1916 444.794 40.81 444.794 42.0682H446.794C446.794 40.8231 446.808 39.215 446.836 37.2426L444.836 37.2144ZM444.794 42.0682C444.794 43.4601 444.801 44.4979 444.815 45.1765L446.815 45.1348C446.801 44.4782 446.794 43.4577 446.794 42.0682H444.794ZM465.016 42.7358L464.984 43.7353L466.016 43.7681V42.7358H465.016ZM458.653 42.6106L458.66 41.6106L457.653 41.6038V42.6106H458.653ZM458.653 53.5V54.5H459.653V53.5H458.653ZM453.438 53.5H452.438V54.5H453.438V53.5ZM453.438 42.6106H454.438V41.6039L453.431 41.6106L453.438 42.6106ZM447.096 42.7358H446.096V43.7685L447.128 43.7352L447.096 42.7358ZM447.096 38.355V37.355H446.096V38.355H447.096ZM465.016 38.355H466.016V37.355H465.016V38.355ZM465.048 41.7363C462.856 41.6665 460.727 41.6246 458.66 41.6106L458.646 43.6106C460.696 43.6244 462.808 43.666 464.984 43.7353L465.048 41.7363ZM457.653 42.6106V53.5H459.653V42.6106H457.653ZM458.653 52.5H453.438V54.5H458.653V52.5ZM454.438 53.5V42.6106H452.438V53.5H454.438ZM453.431 41.6106C451.35 41.6246 449.228 41.6665 447.064 41.7363L447.128 43.7352C449.276 43.666 451.381 43.6244 453.445 43.6106L453.431 41.6106ZM448.096 42.7358V38.355H446.096V42.7358H448.096ZM447.096 39.355H465.016V37.355H447.096V39.355ZM464.016 38.355V42.7358H466.016V38.355H464.016ZM477.31 51.0384L476.442 51.5345L476.442 51.5346L477.31 51.0384ZM477.977 51.4556L478.976 51.4981L479.011 50.6833L478.22 50.4855L477.977 51.4556ZM477.894 53.4166L478.048 54.4046L478.858 54.278L478.893 53.4591L477.894 53.4166ZM476.726 53.5626L476.643 52.566L476.639 52.5663L476.726 53.5626ZM473.054 52.8116L472.242 53.3948L472.249 53.4048L473.054 52.8116ZM472.47 50.2248H473.47L471.527 49.8914L472.47 50.2248ZM470.697 52.7699L470.116 51.9561L470.109 51.9611L470.697 52.7699ZM464.605 52.7699L463.981 53.5508L463.988 53.5567L464.605 52.7699ZM464.459 48.1596L465.112 48.9176L465.112 48.9176L464.459 48.1596ZM467.234 47.0957L467.388 48.0838L469.819 47.7056L467.813 46.2805L467.234 47.0957ZM464.063 45.1348L463.278 44.5151L462.533 45.4594L463.597 46.0197L464.063 45.1348ZM466.921 42.7358L467.373 43.6279L467.382 43.6232L466.921 42.7358ZM475.578 43.299L474.907 44.0404L474.918 44.0497L475.578 43.299ZM469.383 45.9275L469.782 46.8442L469.782 46.8442L469.383 45.9275ZM467.922 46.9914L467.183 46.3176L465.381 48.2947L468.038 47.9847L467.922 46.9914ZM472.136 46.6576L471.622 45.8001L471.622 45.8001L472.136 46.6576ZM472.136 45.7606L471.622 46.6181L471.643 46.6311L471.666 46.6429L472.136 45.7606ZM471.177 49.7659L471.6 50.6721L471.608 50.6683L471.616 50.6643L471.177 49.7659ZM472.47 48.5768L473.37 49.0137L473.47 48.8068V48.5768H472.47ZM472.47 48.0344H473.47V46.4164L472.023 47.14L472.47 48.0344ZM471.364 48.4308L471.567 49.4101L471.583 49.4067L471.599 49.4029L471.364 48.4308ZM469.904 48.6811L469.759 47.6917L469.75 47.6931L469.74 47.6947L469.904 48.6811ZM469.153 48.8063L468.989 47.8199L468.975 47.8223L468.96 47.825L469.153 48.8063ZM476.143 50.0371C476.143 50.5307 476.191 51.0959 476.442 51.5345L478.178 50.5423C478.203 50.586 478.188 50.5812 478.171 50.4777C478.155 50.3817 478.143 50.2383 478.143 50.0371H476.143ZM476.442 51.5346C476.746 52.0668 477.276 52.311 477.735 52.4258L478.22 50.4855C478.174 50.474 478.141 50.4629 478.119 50.4541C478.097 50.4454 478.089 50.44 478.09 50.4407C478.092 50.4417 478.104 50.4495 478.121 50.4669C478.139 50.4847 478.159 50.5098 478.178 50.5423L476.442 51.5346ZM476.978 51.4131L476.895 53.374L478.893 53.4591L478.976 51.4981L476.978 51.4131ZM477.739 52.4285C477.311 52.4956 476.946 52.5408 476.643 52.566L476.809 54.5591C477.173 54.5288 477.587 54.4766 478.048 54.4046L477.739 52.4285ZM476.639 52.5663C476.361 52.5905 475.962 52.6043 475.432 52.6043V54.6043C475.987 54.6043 476.451 54.5903 476.812 54.5588L476.639 52.5663ZM475.432 52.6043C474.305 52.6043 473.95 52.3413 473.859 52.2184L472.249 53.4048C472.937 54.3388 474.168 54.6043 475.432 54.6043V52.6043ZM473.866 52.2284C473.627 51.8943 473.47 51.4243 473.47 50.7464H471.47C471.47 51.7373 471.703 52.6441 472.242 53.3948L473.866 52.2284ZM473.47 50.7464V50.2248H471.47V50.7464H473.47ZM471.527 49.8914C471.174 50.8896 470.688 51.5472 470.116 51.9561L471.278 53.5836C472.263 52.88 472.959 51.8409 473.413 50.5583L471.527 49.8914ZM470.109 51.9611C469.555 52.3636 468.796 52.6043 467.755 52.6043V54.6043C469.106 54.6043 470.309 54.2887 471.285 53.5786L470.109 51.9611ZM467.755 52.6043C466.474 52.6043 465.683 52.344 465.223 51.983L463.988 53.5567C464.947 54.3083 466.256 54.6043 467.755 54.6043V52.6043ZM465.23 51.989C464.827 51.6665 464.562 51.1605 464.562 50.2874H462.562C462.562 51.6117 462.993 52.7607 463.981 53.5507L465.23 51.989ZM464.562 50.2874C464.562 49.6274 464.768 49.2134 465.112 48.9176L463.807 47.4016C462.955 48.1349 462.562 49.1395 462.562 50.2874H464.562ZM465.112 48.9176C465.507 48.5777 466.219 48.2656 467.388 48.0838L467.08 46.1076C465.745 46.3152 464.608 46.7124 463.807 47.4016L465.112 48.9176ZM467.813 46.2805C466.723 45.5059 465.628 44.8285 464.529 44.2499L463.597 46.0197C464.612 46.5536 465.631 47.1835 466.655 47.9109L467.813 46.2805ZM464.848 45.7544C465.603 44.7974 466.446 44.0971 467.373 43.6279L466.469 41.8437C465.254 42.4592 464.192 43.3582 463.278 44.5151L464.848 45.7544ZM467.382 43.6232C468.277 43.158 469.411 42.9013 470.822 42.9013V40.9013C469.174 40.9013 467.706 41.2009 466.46 41.8484L467.382 43.6232ZM470.822 42.9013C472.845 42.9013 474.139 43.3453 474.907 44.0403L476.249 42.5577C474.959 41.3892 473.082 40.9013 470.822 40.9013V42.9013ZM474.918 44.0497C475.672 44.7135 476.143 45.8087 476.143 47.5546H478.143C478.143 45.4621 477.571 43.7202 476.239 42.5483L474.918 44.0497ZM476.143 47.5546V50.0371H478.143V47.5546H476.143ZM471.26 44.5728C470.44 44.5728 469.674 44.7096 468.983 45.0108L469.782 46.8442C470.176 46.6725 470.662 46.5728 471.26 46.5728V44.5728ZM468.983 45.0108C468.301 45.3079 467.701 45.7494 467.183 46.3176L468.661 47.6651C469.005 47.2877 469.379 47.0199 469.782 46.8442L468.983 45.0108ZM468.038 47.9847C468.821 47.8934 469.822 47.8454 471.051 47.8454V45.8454C469.778 45.8454 468.693 45.8947 467.806 45.9981L468.038 47.9847ZM471.051 47.8454C471.586 47.8454 472.191 47.7912 472.651 47.5151L471.622 45.8001C471.663 45.7755 471.653 45.7932 471.538 45.8131C471.431 45.8316 471.272 45.8454 471.051 45.8454V47.8454ZM472.651 47.5151C473.074 47.2614 473.449 46.8145 473.449 46.1778H471.449C471.449 46.0852 471.477 45.9834 471.533 45.8975C471.583 45.8207 471.631 45.7948 471.622 45.8001L472.651 47.5151ZM473.449 46.1778C473.449 45.4954 472.988 45.0815 472.607 44.8782L471.666 46.6429C471.685 46.6531 471.632 46.6301 471.571 46.5483C471.499 46.4525 471.449 46.3202 471.449 46.1778H473.449ZM472.651 44.9031C472.224 44.6471 471.726 44.5728 471.26 44.5728V46.5728C471.395 46.5728 471.489 46.5843 471.551 46.5976C471.613 46.6109 471.63 46.6233 471.622 46.6181L472.651 44.9031ZM469.07 51.204C469.976 51.204 470.825 51.0334 471.6 50.6721L470.754 48.8597C470.276 49.0825 469.721 49.204 469.07 49.204V51.204ZM471.616 50.6643C472.384 50.2887 473.011 49.7528 473.37 49.0137L471.571 48.1399C471.457 48.3743 471.221 48.6312 470.737 48.8675L471.616 50.6643ZM473.47 48.5768V48.0344H471.47V48.5768H473.47ZM472.023 47.14C471.764 47.2695 471.468 47.3772 471.13 47.4587L471.599 49.4029C472.068 49.2897 472.509 49.1331 472.917 48.9289L472.023 47.14ZM471.162 47.4515C470.783 47.5298 470.317 47.61 469.759 47.6917L470.049 49.6706C470.632 49.5853 471.139 49.4987 471.567 49.4101L471.162 47.4515ZM469.74 47.6947L468.989 47.8199L469.318 49.7927L470.069 49.6675L469.74 47.6947ZM468.96 47.825C468.517 47.9121 468.073 48.0494 467.715 48.2917C467.325 48.5568 466.985 48.9951 466.985 49.599H468.985C468.985 49.688 468.959 49.781 468.912 49.8582C468.87 49.9277 468.83 49.9524 468.838 49.9467C468.848 49.9403 468.888 49.9158 468.978 49.8836C469.067 49.8521 469.187 49.8187 469.346 49.7875L468.96 47.825ZM466.985 49.599C466.985 49.8539 467.044 50.1247 467.194 50.3767C467.344 50.6274 467.552 50.8053 467.769 50.9261C468.172 51.1509 468.648 51.204 469.07 51.204V49.204C468.932 49.204 468.838 49.1942 468.778 49.183C468.716 49.1715 468.713 49.1626 468.743 49.1794C468.779 49.1994 468.852 49.2512 468.911 49.3506C468.971 49.4514 468.985 49.5458 468.985 49.599H466.985ZM483.718 45.1556L484.718 45.1723L484.719 45.1535L484.718 45.1348L483.718 45.1556ZM483.739 53.5V54.5H484.77L484.739 53.4702L483.739 53.5ZM478.816 53.5L477.816 53.4912L477.807 54.5H478.816V53.5ZM478.837 51.1427L477.837 51.132L477.837 51.1339L478.837 51.1427ZM478.837 39.4815L477.837 39.4907L477.837 39.4928L478.837 39.4815ZM478.816 37.2285V36.2285H477.807L477.816 37.2377L478.816 37.2285ZM483.739 37.2285L484.739 37.2426L484.754 36.2285H483.739V37.2285ZM482.719 45.139C482.705 45.9821 482.698 47.2685 482.698 48.994H484.698C484.698 47.2706 484.705 45.998 484.718 45.1723L482.719 45.139ZM482.698 48.994C482.698 51.0672 482.711 52.582 482.74 53.5298L484.739 53.4702C484.712 52.5544 484.698 51.0653 484.698 48.994H482.698ZM483.739 52.5H478.816V54.5H483.739V52.5ZM479.816 53.5088L479.837 51.1516L477.837 51.1339L477.816 53.4912L479.816 53.5088ZM479.837 51.1535C479.865 48.5656 479.879 46.5657 479.879 45.1556H477.879C477.879 46.5549 477.865 48.5464 477.837 51.132L479.837 51.1535ZM479.879 45.1556C479.879 43.8148 479.865 41.919 479.837 39.4701L477.837 39.4928C477.865 41.9393 477.879 43.8262 477.879 45.1556H479.879ZM479.837 39.4722L479.816 37.2192L477.816 37.2377L477.837 39.4907L479.837 39.4722ZM478.816 38.2285H483.739V36.2285H478.816V38.2285ZM482.739 37.2144C482.712 39.1916 482.698 40.81 482.698 42.0682H484.698C484.698 40.8231 484.711 39.215 484.739 37.2426L482.739 37.2144ZM482.698 42.0682C482.698 43.4601 482.705 44.4979 482.719 45.1765L484.718 45.1348C484.705 44.4782 484.698 43.4577 484.698 42.0682H482.698ZM499.727 42.0891L500.401 42.8282L502.309 41.0891H499.727V42.0891ZM494.554 46.8036L493.88 46.0645L493.228 46.659L493.737 47.3801L494.554 46.8036ZM499.498 53.5V54.5H501.546L500.286 52.8849L499.498 53.5ZM493.97 53.5L493.12 54.0281L493.414 54.5H493.97V53.5ZM492.906 51.7894L492.049 52.3054L492.053 52.3115L492.057 52.3175L492.906 51.7894ZM491.529 49.5364L492.371 48.9974L491.73 47.9961L490.854 48.7989L491.529 49.5364ZM489.797 51.1219L489.122 50.3843L488.797 50.6816V51.1219H489.797ZM489.797 53.5V54.5H490.797V53.5H489.797ZM484.999 53.5L484 53.4579L483.956 54.5H484.999V53.5ZM484.999 37.2702V36.2702H483.958L484 37.3108L484.999 37.2702ZM489.797 37.2702H490.797V36.2702H489.797V37.2702ZM489.797 46.1152H488.797V48.5647L490.512 46.8151L489.797 46.1152ZM493.615 42.0891V41.0891H493.175L492.877 41.4141L493.615 42.0891ZM499.054 41.3499L493.88 46.0645L495.227 47.5428L500.401 42.8282L499.054 41.3499ZM493.737 47.3801C495.51 49.8937 497.168 52.1391 498.709 54.1151L500.286 52.8849C498.768 50.9391 497.13 48.7202 495.371 46.2271L493.737 47.3801ZM499.498 52.5H493.97V54.5H499.498V52.5ZM494.819 52.9719L493.755 51.2613L492.057 52.3175L493.12 54.0281L494.819 52.9719ZM493.762 51.2734C493.069 50.1218 492.602 49.3586 492.371 48.9974L490.687 50.0755C490.9 50.4096 491.352 51.1484 492.049 52.3054L493.762 51.2734ZM490.854 48.7989L489.122 50.3843L490.473 51.8594L492.204 50.2739L490.854 48.7989ZM488.797 51.1219V53.5H490.797V51.1219H488.797ZM489.797 52.5H484.999V54.5H489.797V52.5ZM485.999 53.5421C486.11 50.8853 486.166 48.1941 486.166 45.4685H484.166C484.166 48.1668 484.111 50.8299 484 53.4579L485.999 53.5421ZM486.166 45.4685C486.166 42.7291 486.11 39.9828 485.999 37.2296L484 37.3108C484.111 40.0371 484.166 42.7563 484.166 45.4685H486.166ZM484.999 38.2702H489.797V36.2702H484.999V38.2702ZM488.797 37.2702V46.1152H490.797V37.2702H488.797ZM490.512 46.8151C491.868 45.4308 493.148 44.0805 494.353 42.7641L492.877 41.4141C491.69 42.7122 490.425 44.046 489.083 45.4154L490.512 46.8151ZM493.615 43.0891H499.727V41.0891H493.615V43.0891Z" fill="black" fill-opacity="0.2"/>
<path d="M530.048 35.5674V52.4326" stroke="#E0E0E0" stroke-width="1.20466"/>
<path d="M569.424 38.8H571.504V50H569.424V38.8ZM563.632 50H561.552V38.8H563.632V50ZM569.584 45.2H563.456V43.424H569.584V45.2ZM577.513 50.112C576.638 50.112 575.859 49.9253 575.177 49.552C574.494 49.168 573.955 48.6453 573.561 47.984C573.166 47.3227 572.969 46.5707 572.969 45.728C572.969 44.8747 573.166 44.1227 573.561 43.472C573.955 42.8107 574.494 42.2933 575.177 41.92C575.859 41.5467 576.638 41.36 577.513 41.36C578.398 41.36 579.182 41.5467 579.865 41.92C580.558 42.2933 581.097 42.8053 581.481 43.456C581.875 44.1067 582.073 44.864 582.073 45.728C582.073 46.5707 581.875 47.3227 581.481 47.984C581.097 48.6453 580.558 49.168 579.865 49.552C579.182 49.9253 578.398 50.112 577.513 50.112ZM577.513 48.4C578.003 48.4 578.441 48.2933 578.825 48.08C579.209 47.8667 579.507 47.5573 579.721 47.152C579.945 46.7467 580.057 46.272 580.057 45.728C580.057 45.1733 579.945 44.6987 579.721 44.304C579.507 43.8987 579.209 43.5893 578.825 43.376C578.441 43.1627 578.009 43.056 577.529 43.056C577.038 43.056 576.601 43.1627 576.217 43.376C575.843 43.5893 575.545 43.8987 575.321 44.304C575.097 44.6987 574.985 45.1733 574.985 45.728C574.985 46.272 575.097 46.7467 575.321 47.152C575.545 47.5573 575.843 47.8667 576.217 48.08C576.601 48.2933 577.033 48.4 577.513 48.4ZM594.129 41.36C594.812 41.36 595.415 41.4933 595.937 41.76C596.471 42.0267 596.887 42.4373 597.185 42.992C597.484 43.536 597.633 44.24 597.633 45.104V50H595.633V45.36C595.633 44.6027 595.468 44.0373 595.137 43.664C594.807 43.2907 594.332 43.104 593.713 43.104C593.276 43.104 592.887 43.2 592.545 43.392C592.215 43.584 591.953 43.8667 591.761 44.24C591.58 44.6133 591.489 45.088 591.489 45.664V50H589.489V45.36C589.489 44.6027 589.324 44.0373 588.993 43.664C588.663 43.2907 588.188 43.104 587.569 43.104C587.132 43.104 586.743 43.2 586.401 43.392C586.071 43.584 585.809 43.8667 585.617 44.24C585.436 44.6133 585.345 45.088 585.345 45.664V50H583.345V41.456H585.249V43.728L584.913 43.056C585.201 42.5013 585.617 42.08 586.161 41.792C586.716 41.504 587.345 41.36 588.049 41.36C588.849 41.36 589.543 41.5573 590.129 41.952C590.727 42.3467 591.121 42.944 591.313 43.744L590.529 43.472C590.807 42.832 591.265 42.32 591.905 41.936C592.545 41.552 593.287 41.36 594.129 41.36ZM603.581 50.112C602.631 50.112 601.799 49.9253 601.085 49.552C600.381 49.168 599.831 48.6453 599.437 47.984C599.053 47.3227 598.861 46.5707 598.861 45.728C598.861 44.8747 599.047 44.1227 599.421 43.472C599.805 42.8107 600.327 42.2933 600.989 41.92C601.661 41.5467 602.423 41.36 603.277 41.36C604.109 41.36 604.85 41.5413 605.501 41.904C606.151 42.2667 606.663 42.7787 607.037 43.44C607.41 44.1013 607.597 44.88 607.597 45.776C607.597 45.8613 607.591 45.9573 607.581 46.064C607.581 46.1707 607.575 46.272 607.565 46.368H600.445V45.04H606.509L605.725 45.456C605.735 44.9653 605.634 44.5333 605.421 44.16C605.207 43.7867 604.914 43.4933 604.541 43.28C604.178 43.0667 603.757 42.96 603.277 42.96C602.786 42.96 602.354 43.0667 601.981 43.28C601.618 43.4933 601.33 43.792 601.117 44.176C600.914 44.5493 600.813 44.992 600.813 45.504V45.824C600.813 46.336 600.93 46.7893 601.165 47.184C601.399 47.5787 601.73 47.8827 602.157 48.096C602.583 48.3093 603.074 48.416 603.629 48.416C604.109 48.416 604.541 48.3413 604.925 48.192C605.309 48.0427 605.65 47.808 605.949 47.488L607.021 48.72C606.637 49.168 606.151 49.5147 605.565 49.76C604.989 49.9947 604.327 50.112 603.581 50.112Z" fill="black"/>
<path d="M642.824 50V40.56H639.112V38.8H648.616V40.56H644.904V50H642.824ZM652.486 50.112C651.536 50.112 650.704 49.9253 649.99 49.552C649.286 49.168 648.736 48.6453 648.342 47.984C647.958 47.3227 647.766 46.5707 647.766 45.728C647.766 44.8747 647.952 44.1227 648.326 43.472C648.71 42.8107 649.232 42.2933 649.894 41.92C650.566 41.5467 651.328 41.36 652.182 41.36C653.014 41.36 653.755 41.5413 654.406 41.904C655.056 42.2667 655.568 42.7787 655.942 43.44C656.315 44.1013 656.502 44.88 656.502 45.776C656.502 45.8613 656.496 45.9573 656.486 46.064C656.486 46.1707 656.48 46.272 656.47 46.368H649.35V45.04H655.414L654.63 45.456C654.64 44.9653 654.539 44.5333 654.326 44.16C654.112 43.7867 653.819 43.4933 653.446 43.28C653.083 43.0667 652.662 42.96 652.182 42.96C651.691 42.96 651.259 43.0667 650.886 43.28C650.523 43.4933 650.235 43.792 650.022 44.176C649.819 44.5493 649.718 44.992 649.718 45.504V45.824C649.718 46.336 649.835 46.7893 650.07 47.184C650.304 47.5787 650.635 47.8827 651.062 48.096C651.488 48.3093 651.979 48.416 652.534 48.416C653.014 48.416 653.446 48.3413 653.83 48.192C654.214 48.0427 654.555 47.808 654.854 47.488L655.926 48.72C655.542 49.168 655.056 49.5147 654.47 49.76C653.894 49.9947 653.232 50.112 652.486 50.112ZM656.38 50L660.14 45.104L660.108 46.176L656.524 41.456H658.748L661.26 44.816H660.412L662.94 41.456H665.1L661.484 46.176L661.5 45.104L665.244 50H662.988L660.348 46.432L661.18 46.544L658.588 50H656.38ZM669.296 50.112C668.358 50.112 667.632 49.872 667.12 49.392C666.608 48.9013 666.352 48.1813 666.352 47.232V39.568H668.352V47.184C668.352 47.5893 668.454 47.904 668.656 48.128C668.87 48.352 669.163 48.464 669.536 48.464C669.984 48.464 670.358 48.3467 670.656 48.112L671.216 49.536C670.982 49.728 670.694 49.872 670.352 49.968C670.011 50.064 669.659 50.112 669.296 50.112ZM664.944 43.12V41.52H670.64V43.12H664.944ZM676.957 50.112C676.232 50.112 675.587 49.952 675.021 49.632C674.456 49.312 674.008 48.832 673.677 48.192C673.357 47.5413 673.197 46.72 673.197 45.728C673.197 44.7253 673.363 43.904 673.693 43.264C674.035 42.624 674.488 42.1493 675.053 41.84C675.629 41.52 676.264 41.36 676.957 41.36C677.8 41.36 678.541 41.5413 679.181 41.904C679.832 42.2667 680.344 42.7733 680.717 43.424C681.101 44.0747 681.293 44.8427 681.293 45.728C681.293 46.6133 681.101 47.3813 680.717 48.032C680.344 48.6827 679.832 49.1947 679.181 49.568C678.541 49.9307 677.8 50.112 676.957 50.112ZM672.221 50V38.128H674.221V43.44L674.061 45.712L674.125 47.984V50H672.221ZM676.733 48.4C677.213 48.4 677.64 48.2933 678.013 48.08C678.397 47.8667 678.701 47.5573 678.925 47.152C679.149 46.7467 679.261 46.272 679.261 45.728C679.261 45.1733 679.149 44.6987 678.925 44.304C678.701 43.8987 678.397 43.5893 678.013 43.376C677.64 43.1627 677.213 43.056 676.733 43.056C676.253 43.056 675.821 43.1627 675.437 43.376C675.053 43.5893 674.749 43.8987 674.525 44.304C674.301 44.6987 674.189 45.1733 674.189 45.728C674.189 46.272 674.301 46.7467 674.525 47.152C674.749 47.5573 675.053 47.8667 675.437 48.08C675.821 48.2933 676.253 48.4 676.733 48.4ZM686.39 50.112C685.516 50.112 684.737 49.9253 684.054 49.552C683.372 49.168 682.833 48.6453 682.438 47.984C682.044 47.3227 681.846 46.5707 681.846 45.728C681.846 44.8747 682.044 44.1227 682.438 43.472C682.833 42.8107 683.372 42.2933 684.054 41.92C684.737 41.5467 685.516 41.36 686.39 41.36C687.276 41.36 688.06 41.5467 688.742 41.92C689.436 42.2933 689.974 42.8053 690.358 43.456C690.753 44.1067 690.95 44.864 690.95 45.728C690.95 46.5707 690.753 47.3227 690.358 47.984C689.974 48.6453 689.436 49.168 688.742 49.552C688.06 49.9253 687.276 50.112 686.39 50.112ZM686.39 48.4C686.881 48.4 687.318 48.2933 687.702 48.08C688.086 47.8667 688.385 47.5573 688.598 47.152C688.822 46.7467 688.934 46.272 688.934 45.728C688.934 45.1733 688.822 44.6987 688.598 44.304C688.385 43.8987 688.086 43.5893 687.702 43.376C687.318 43.1627 686.886 43.056 686.406 43.056C685.916 43.056 685.478 43.1627 685.094 43.376C684.721 43.5893 684.422 43.8987 684.198 44.304C683.974 44.6987 683.862 45.1733 683.862 45.728C683.862 46.272 683.974 46.7467 684.198 47.152C684.422 47.5573 684.721 47.8667 685.094 48.08C685.478 48.2933 685.91 48.4 686.39 48.4ZM696.063 50.112C695.188 50.112 694.409 49.9253 693.727 49.552C693.044 49.168 692.505 48.6453 692.111 47.984C691.716 47.3227 691.519 46.5707 691.519 45.728C691.519 44.8747 691.716 44.1227 692.111 43.472C692.505 42.8107 693.044 42.2933 693.727 41.92C694.409 41.5467 695.188 41.36 696.063 41.36C696.948 41.36 697.732 41.5467 698.415 41.92C699.108 42.2933 699.647 42.8053 700.031 43.456C700.425 44.1067 700.623 44.864 700.623 45.728C700.623 46.5707 700.425 47.3227 700.031 47.984C699.647 48.6453 699.108 49.168 698.415 49.552C697.732 49.9253 696.948 50.112 696.063 50.112ZM696.063 48.4C696.553 48.4 696.991 48.2933 697.375 48.08C697.759 47.8667 698.057 47.5573 698.271 47.152C698.495 46.7467 698.607 46.272 698.607 45.728C698.607 45.1733 698.495 44.6987 698.271 44.304C698.057 43.8987 697.759 43.5893 697.375 43.376C696.991 43.1627 696.559 43.056 696.079 43.056C695.588 43.056 695.151 43.1627 694.767 43.376C694.393 43.5893 694.095 43.8987 693.871 44.304C693.647 44.6987 693.535 45.1733 693.535 45.728C693.535 46.272 693.647 46.7467 693.871 47.152C694.095 47.5573 694.393 47.8667 694.767 48.08C695.151 48.2933 695.583 48.4 696.063 48.4ZM703.527 48.096L703.575 45.584L708.039 41.456H710.439L706.647 45.264L705.591 46.144L703.527 48.096ZM701.895 50V38.128H703.895V50H701.895ZM708.343 50L705.223 46.144L706.487 44.544L710.775 50H708.343Z" fill="#757575"/>
<path d="M746.024 50.16C745.149 50.16 744.312 50.0373 743.512 49.792C742.712 49.536 742.077 49.2107 741.608 48.816L742.328 47.2C742.776 47.552 743.33 47.8453 743.992 48.08C744.653 48.3147 745.33 48.432 746.024 48.432C746.61 48.432 747.085 48.368 747.448 48.24C747.81 48.112 748.077 47.9413 748.248 47.728C748.418 47.504 748.504 47.2533 748.504 46.976C748.504 46.6347 748.381 46.3627 748.136 46.16C747.89 45.9467 747.57 45.7813 747.176 45.664C746.792 45.536 746.36 45.4187 745.88 45.312C745.41 45.2053 744.936 45.0827 744.456 44.944C743.986 44.7947 743.554 44.608 743.16 44.384C742.776 44.1493 742.461 43.84 742.216 43.456C741.97 43.072 741.848 42.5813 741.848 41.984C741.848 41.376 742.008 40.8213 742.328 40.32C742.658 39.808 743.154 39.4027 743.816 39.104C744.488 38.7947 745.336 38.64 746.36 38.64C747.032 38.64 747.698 38.7253 748.36 38.896C749.021 39.0667 749.597 39.312 750.088 39.632L749.432 41.248C748.93 40.9493 748.413 40.7307 747.88 40.592C747.346 40.4427 746.834 40.368 746.344 40.368C745.768 40.368 745.298 40.4373 744.936 40.576C744.584 40.7147 744.322 40.896 744.152 41.12C743.992 41.344 743.912 41.6 743.912 41.888C743.912 42.2293 744.029 42.5067 744.264 42.72C744.509 42.9227 744.824 43.0827 745.208 43.2C745.602 43.3173 746.04 43.4347 746.52 43.552C747 43.6587 747.474 43.7813 747.944 43.92C748.424 44.0587 748.856 44.24 749.24 44.464C749.634 44.688 749.949 44.992 750.184 45.376C750.429 45.76 750.552 46.2453 750.552 46.832C750.552 47.4293 750.386 47.984 750.056 48.496C749.736 48.9973 749.24 49.4027 748.568 49.712C747.896 50.0107 747.048 50.16 746.024 50.16ZM754.998 50.112C754.059 50.112 753.334 49.872 752.822 49.392C752.31 48.9013 752.054 48.1813 752.054 47.232V39.568H754.054V47.184C754.054 47.5893 754.155 47.904 754.358 48.128C754.571 48.352 754.865 48.464 755.238 48.464C755.686 48.464 756.059 48.3467 756.358 48.112L756.918 49.536C756.683 49.728 756.395 49.872 756.054 49.968C755.713 50.064 755.361 50.112 754.998 50.112ZM750.646 43.12V41.52H756.342V43.12H750.646ZM763.187 50V48.272L763.075 47.904V44.88C763.075 44.2933 762.899 43.84 762.547 43.52C762.195 43.1893 761.662 43.024 760.947 43.024C760.467 43.024 759.993 43.0987 759.523 43.248C759.065 43.3973 758.675 43.6053 758.355 43.872L757.571 42.416C758.03 42.064 758.574 41.8027 759.203 41.632C759.843 41.4507 760.505 41.36 761.187 41.36C762.425 41.36 763.379 41.6587 764.051 42.256C764.734 42.8427 765.075 43.7547 765.075 44.992V50H763.187ZM760.499 50.112C759.859 50.112 759.299 50.0053 758.819 49.792C758.339 49.568 757.966 49.264 757.699 48.88C757.443 48.4853 757.315 48.0427 757.315 47.552C757.315 47.072 757.427 46.64 757.651 46.256C757.886 45.872 758.265 45.568 758.787 45.344C759.31 45.12 760.003 45.008 760.867 45.008H763.347V46.336H761.011C760.329 46.336 759.87 46.448 759.635 46.672C759.401 46.8853 759.283 47.152 759.283 47.472C759.283 47.8347 759.427 48.1227 759.715 48.336C760.003 48.5493 760.403 48.656 760.915 48.656C761.406 48.656 761.843 48.544 762.227 48.32C762.622 48.096 762.905 47.7653 763.075 47.328L763.411 48.528C763.219 49.0293 762.873 49.4187 762.371 49.696C761.881 49.9733 761.257 50.112 760.499 50.112ZM770.218 50.112C769.279 50.112 768.554 49.872 768.042 49.392C767.53 48.9013 767.274 48.1813 767.274 47.232V39.568H769.274V47.184C769.274 47.5893 769.375 47.904 769.578 48.128C769.791 48.352 770.085 48.464 770.458 48.464C770.906 48.464 771.279 48.3467 771.578 48.112L772.138 49.536C771.903 49.728 771.615 49.872 771.274 49.968C770.933 50.064 770.581 50.112 770.218 50.112ZM765.866 43.12V41.52H771.562V43.12H765.866ZM773.143 50V41.456H775.143V50H773.143ZM774.151 40.048C773.778 40.048 773.469 39.9307 773.223 39.696C772.989 39.4613 772.871 39.1787 772.871 38.848C772.871 38.5067 772.989 38.224 773.223 38C773.469 37.7653 773.778 37.648 774.151 37.648C774.525 37.648 774.829 37.76 775.063 37.984C775.309 38.1973 775.431 38.4693 775.431 38.8C775.431 39.152 775.314 39.4507 775.079 39.696C774.845 39.9307 774.535 40.048 774.151 40.048ZM779.768 50.112C779.054 50.112 778.366 50.0213 777.704 49.84C777.054 49.648 776.536 49.4187 776.152 49.152L776.92 47.632C777.304 47.8773 777.763 48.08 778.296 48.24C778.83 48.4 779.363 48.48 779.896 48.48C780.526 48.48 780.979 48.3947 781.256 48.224C781.544 48.0533 781.688 47.824 781.688 47.536C781.688 47.3013 781.592 47.1253 781.4 47.008C781.208 46.88 780.958 46.784 780.648 46.72C780.339 46.656 779.992 46.5973 779.608 46.544C779.235 46.4907 778.856 46.4213 778.472 46.336C778.099 46.24 777.758 46.1067 777.448 45.936C777.139 45.7547 776.888 45.5147 776.696 45.216C776.504 44.9173 776.408 44.5227 776.408 44.032C776.408 43.488 776.563 43.0187 776.872 42.624C777.182 42.2187 777.614 41.9093 778.168 41.696C778.734 41.472 779.4 41.36 780.168 41.36C780.744 41.36 781.326 41.424 781.912 41.552C782.499 41.68 782.984 41.8613 783.368 42.096L782.6 43.616C782.195 43.3707 781.784 43.2053 781.368 43.12C780.963 43.024 780.558 42.976 780.152 42.976C779.544 42.976 779.091 43.0667 778.792 43.248C778.504 43.4293 778.36 43.6587 778.36 43.936C778.36 44.192 778.456 44.384 778.648 44.512C778.84 44.64 779.091 44.7413 779.4 44.816C779.71 44.8907 780.051 44.9547 780.424 45.008C780.808 45.0507 781.187 45.12 781.56 45.216C781.934 45.312 782.275 45.4453 782.584 45.616C782.904 45.776 783.16 46.0053 783.352 46.304C783.544 46.6027 783.64 46.992 783.64 47.472C783.64 48.0053 783.48 48.4693 783.16 48.864C782.851 49.2587 782.408 49.568 781.832 49.792C781.256 50.0053 780.568 50.112 779.768 50.112ZM787.939 50.112C787 50.112 786.275 49.872 785.763 49.392C785.251 48.9013 784.995 48.1813 784.995 47.232V39.568H786.995V47.184C786.995 47.5893 787.096 47.904 787.299 48.128C787.512 48.352 787.805 48.464 788.179 48.464C788.627 48.464 789 48.3467 789.299 48.112L789.859 49.536C789.624 49.728 789.336 49.872 788.995 49.968C788.653 50.064 788.301 50.112 787.939 50.112ZM783.587 43.12V41.52H789.283V43.12H783.587ZM790.864 50V41.456H792.864V50H790.864ZM791.872 40.048C791.499 40.048 791.189 39.9307 790.944 39.696C790.709 39.4613 790.592 39.1787 790.592 38.848C790.592 38.5067 790.709 38.224 790.944 38C791.189 37.7653 791.499 37.648 791.872 37.648C792.245 37.648 792.549 37.76 792.784 37.984C793.029 38.1973 793.152 38.4693 793.152 38.8C793.152 39.152 793.035 39.4507 792.8 39.696C792.565 39.9307 792.256 40.048 791.872 40.048ZM798.769 50.112C797.873 50.112 797.073 49.9253 796.369 49.552C795.676 49.168 795.132 48.6453 794.737 47.984C794.342 47.3227 794.145 46.5707 794.145 45.728C794.145 44.8747 794.342 44.1227 794.737 43.472C795.132 42.8107 795.676 42.2933 796.369 41.92C797.073 41.5467 797.873 41.36 798.769 41.36C799.601 41.36 800.332 41.5307 800.961 41.872C801.601 42.2027 802.086 42.6933 802.417 43.344L800.881 44.24C800.625 43.8347 800.31 43.536 799.937 43.344C799.574 43.152 799.18 43.056 798.753 43.056C798.262 43.056 797.82 43.1627 797.425 43.376C797.03 43.5893 796.721 43.8987 796.497 44.304C796.273 44.6987 796.161 45.1733 796.161 45.728C796.161 46.2827 796.273 46.7627 796.497 47.168C796.721 47.5627 797.03 47.8667 797.425 48.08C797.82 48.2933 798.262 48.4 798.753 48.4C799.18 48.4 799.574 48.304 799.937 48.112C800.31 47.92 800.625 47.6213 800.881 47.216L802.417 48.112C802.086 48.752 801.601 49.248 800.961 49.6C800.332 49.9413 799.601 50.112 798.769 50.112ZM806.146 50.112C805.431 50.112 804.743 50.0213 804.082 49.84C803.431 49.648 802.914 49.4187 802.53 49.152L803.298 47.632C803.682 47.8773 804.141 48.08 804.674 48.24C805.207 48.4 805.741 48.48 806.274 48.48C806.903 48.48 807.357 48.3947 807.634 48.224C807.922 48.0533 808.066 47.824 808.066 47.536C808.066 47.3013 807.97 47.1253 807.778 47.008C807.586 46.88 807.335 46.784 807.026 46.72C806.717 46.656 806.37 46.5973 805.986 46.544C805.613 46.4907 805.234 46.4213 804.85 46.336C804.477 46.24 804.135 46.1067 803.826 45.936C803.517 45.7547 803.266 45.5147 803.074 45.216C802.882 44.9173 802.786 44.5227 802.786 44.032C802.786 43.488 802.941 43.0187 803.25 42.624C803.559 42.2187 803.991 41.9093 804.546 41.696C805.111 41.472 805.778 41.36 806.546 41.36C807.122 41.36 807.703 41.424 808.29 41.552C808.877 41.68 809.362 41.8613 809.746 42.096L808.978 43.616C808.573 43.3707 808.162 43.2053 807.746 43.12C807.341 43.024 806.935 42.976 806.53 42.976C805.922 42.976 805.469 43.0667 805.17 43.248C804.882 43.4293 804.738 43.6587 804.738 43.936C804.738 44.192 804.834 44.384 805.026 44.512C805.218 44.64 805.469 44.7413 805.778 44.816C806.087 44.8907 806.429 44.9547 806.802 45.008C807.186 45.0507 807.565 45.12 807.938 45.216C808.311 45.312 808.653 45.4453 808.962 45.616C809.282 45.776 809.538 46.0053 809.73 46.304C809.922 46.6027 810.018 46.992 810.018 47.472C810.018 48.0053 809.858 48.4693 809.538 48.864C809.229 49.2587 808.786 49.568 808.21 49.792C807.634 50.0053 806.946 50.112 806.146 50.112Z" fill="#757575"/>
<path d="M847.784 50.16C846.909 50.16 846.104 50.0213 845.368 49.744C844.642 49.456 844.008 49.056 843.464 48.544C842.92 48.0213 842.498 47.408 842.2 46.704C841.901 46 841.752 45.232 841.752 44.4C841.752 43.568 841.901 42.8 842.2 42.096C842.498 41.392 842.92 40.784 843.464 40.272C844.018 39.7493 844.664 39.3493 845.4 39.072C846.136 38.784 846.941 38.64 847.816 38.64C848.765 38.64 849.618 38.7947 850.376 39.104C851.144 39.4133 851.789 39.8667 852.312 40.464L851 41.744C850.562 41.3067 850.088 40.9867 849.576 40.784C849.074 40.5707 848.52 40.464 847.912 40.464C847.325 40.464 846.781 40.56 846.28 40.752C845.778 40.944 845.346 41.216 844.984 41.568C844.621 41.92 844.338 42.336 844.136 42.816C843.944 43.296 843.848 43.824 843.848 44.4C843.848 44.9653 843.944 45.488 844.136 45.968C844.338 46.448 844.621 46.8693 844.984 47.232C845.346 47.584 845.773 47.856 846.264 48.048C846.754 48.24 847.298 48.336 847.896 48.336C848.45 48.336 848.984 48.2507 849.496 48.08C850.018 47.8987 850.514 47.6 850.984 47.184L852.168 48.736C851.581 49.2053 850.898 49.5627 850.12 49.808C849.352 50.0427 848.573 50.16 847.784 50.16ZM850.2 48.464V44.272H852.168V48.736L850.2 48.464ZM859.343 50V48.272L859.231 47.904V44.88C859.231 44.2933 859.055 43.84 858.703 43.52C858.351 43.1893 857.818 43.024 857.103 43.024C856.623 43.024 856.148 43.0987 855.679 43.248C855.22 43.3973 854.831 43.6053 854.511 43.872L853.727 42.416C854.186 42.064 854.73 41.8027 855.359 41.632C855.999 41.4507 856.66 41.36 857.343 41.36C858.58 41.36 859.535 41.6587 860.207 42.256C860.89 42.8427 861.231 43.7547 861.231 44.992V50H859.343ZM856.655 50.112C856.015 50.112 855.455 50.0053 854.975 49.792C854.495 49.568 854.122 49.264 853.855 48.88C853.599 48.4853 853.471 48.0427 853.471 47.552C853.471 47.072 853.583 46.64 853.807 46.256C854.042 45.872 854.42 45.568 854.943 45.344C855.466 45.12 856.159 45.008 857.023 45.008H859.503V46.336H857.167C856.484 46.336 856.026 46.448 855.791 46.672C855.556 46.8853 855.439 47.152 855.439 47.472C855.439 47.8347 855.583 48.1227 855.871 48.336C856.159 48.5493 856.559 48.656 857.071 48.656C857.562 48.656 857.999 48.544 858.383 48.32C858.778 48.096 859.06 47.7653 859.231 47.328L859.567 48.528C859.375 49.0293 859.028 49.4187 858.527 49.696C858.036 49.9733 857.412 50.112 856.655 50.112ZM873.942 41.36C874.624 41.36 875.227 41.4933 875.75 41.76C876.283 42.0267 876.699 42.4373 876.998 42.992C877.296 43.536 877.446 44.24 877.446 45.104V50H875.446V45.36C875.446 44.6027 875.28 44.0373 874.95 43.664C874.619 43.2907 874.144 43.104 873.526 43.104C873.088 43.104 872.699 43.2 872.358 43.392C872.027 43.584 871.766 43.8667 871.574 44.24C871.392 44.6133 871.302 45.088 871.302 45.664V50H869.302V45.36C869.302 44.6027 869.136 44.0373 868.806 43.664C868.475 43.2907 868 43.104 867.382 43.104C866.944 43.104 866.555 43.2 866.214 43.392C865.883 43.584 865.622 43.8667 865.43 44.24C865.248 44.6133 865.158 45.088 865.158 45.664V50H863.158V41.456H865.062V43.728L864.726 43.056C865.014 42.5013 865.43 42.08 865.974 41.792C866.528 41.504 867.158 41.36 867.862 41.36C868.662 41.36 869.355 41.5573 869.942 41.952C870.539 42.3467 870.934 42.944 871.126 43.744L870.342 43.472C870.619 42.832 871.078 42.32 871.718 41.936C872.358 41.552 873.099 41.36 873.942 41.36ZM883.393 50.112C882.444 50.112 881.612 49.9253 880.897 49.552C880.193 49.168 879.644 48.6453 879.249 47.984C878.865 47.3227 878.673 46.5707 878.673 45.728C878.673 44.8747 878.86 44.1227 879.233 43.472C879.617 42.8107 880.14 42.2933 880.801 41.92C881.473 41.5467 882.236 41.36 883.089 41.36C883.921 41.36 884.662 41.5413 885.313 41.904C885.964 42.2667 886.476 42.7787 886.849 43.44C887.222 44.1013 887.409 44.88 887.409 45.776C887.409 45.8613 887.404 45.9573 887.393 46.064C887.393 46.1707 887.388 46.272 887.377 46.368H880.257V45.04H886.321L885.537 45.456C885.548 44.9653 885.446 44.5333 885.233 44.16C885.02 43.7867 884.726 43.4933 884.353 43.28C883.99 43.0667 883.569 42.96 883.089 42.96C882.598 42.96 882.166 43.0667 881.793 43.28C881.43 43.4933 881.142 43.792 880.929 44.176C880.726 44.5493 880.625 44.992 880.625 45.504V45.824C880.625 46.336 880.742 46.7893 880.977 47.184C881.212 47.5787 881.542 47.8827 881.969 48.096C882.396 48.3093 882.886 48.416 883.441 48.416C883.921 48.416 884.353 48.3413 884.737 48.192C885.121 48.0427 885.462 47.808 885.761 47.488L886.833 48.72C886.449 49.168 885.964 49.5147 885.377 49.76C884.801 49.9947 884.14 50.112 883.393 50.112ZM891.33 50.112C890.616 50.112 889.928 50.0213 889.266 49.84C888.616 49.648 888.098 49.4187 887.714 49.152L888.482 47.632C888.866 47.8773 889.325 48.08 889.858 48.24C890.392 48.4 890.925 48.48 891.458 48.48C892.088 48.48 892.541 48.3947 892.818 48.224C893.106 48.0533 893.25 47.824 893.25 47.536C893.25 47.3013 893.154 47.1253 892.962 47.008C892.77 46.88 892.52 46.784 892.21 46.72C891.901 46.656 891.554 46.5973 891.17 46.544C890.797 46.4907 890.418 46.4213 890.034 46.336C889.661 46.24 889.32 46.1067 889.01 45.936C888.701 45.7547 888.45 45.5147 888.258 45.216C888.066 44.9173 887.97 44.5227 887.97 44.032C887.97 43.488 888.125 43.0187 888.434 42.624C888.744 42.2187 889.176 41.9093 889.73 41.696C890.296 41.472 890.962 41.36 891.73 41.36C892.306 41.36 892.888 41.424 893.474 41.552C894.061 41.68 894.546 41.8613 894.93 42.096L894.162 43.616C893.757 43.3707 893.346 43.2053 892.93 43.12C892.525 43.024 892.12 42.976 891.714 42.976C891.106 42.976 890.653 43.0667 890.354 43.248C890.066 43.4293 889.922 43.6587 889.922 43.936C889.922 44.192 890.018 44.384 890.21 44.512C890.402 44.64 890.653 44.7413 890.962 44.816C891.272 44.8907 891.613 44.9547 891.986 45.008C892.37 45.0507 892.749 45.12 893.122 45.216C893.496 45.312 893.837 45.4453 894.146 45.616C894.466 45.776 894.722 46.0053 894.914 46.304C895.106 46.6027 895.202 46.992 895.202 47.472C895.202 48.0053 895.042 48.4693 894.722 48.864C894.413 49.2587 893.97 49.568 893.394 49.792C892.818 50.0053 892.13 50.112 891.33 50.112Z" fill="#757575"/>
<path d="M899.812 43.6089L903.274 47.0713L906.737 43.6089" stroke="#757575" stroke-width="1.6"/>
<rect x="1465.05" y="24" width="41" height="40" rx="20" fill="#C3DCE3"/>
<path d="M1479.28 50L1484.27 38.8H1486.83L1491.84 50H1489.12L1485.02 40.112H1486.05L1481.93 50H1479.28ZM1481.77 47.6L1482.46 45.632H1488.22L1488.93 47.6H1481.77Z" fill="#2B788B"/>
<path d="M1515.97 50L1521.01 38.8H1523.06L1528.11 50H1525.94L1521.6 39.904H1522.43L1518.11 50H1515.97ZM1518.29 47.408L1518.85 45.776H1524.9L1525.46 47.408H1518.29ZM1528.7 50V38.128H1530.7V50H1528.7ZM1536.7 50.112C1535.76 50.112 1534.92 49.9253 1534.21 49.552C1533.5 49.168 1532.96 48.6453 1532.56 47.984C1532.18 47.3227 1531.98 46.5707 1531.98 45.728C1531.98 44.8747 1532.17 44.1227 1532.54 43.472C1532.93 42.8107 1533.45 42.2933 1534.11 41.92C1534.78 41.5467 1535.55 41.36 1536.4 41.36C1537.23 41.36 1537.97 41.5413 1538.62 41.904C1539.28 42.2667 1539.79 42.7787 1540.16 43.44C1540.53 44.1013 1540.72 44.88 1540.72 45.776C1540.72 45.8613 1540.72 45.9573 1540.7 46.064C1540.7 46.1707 1540.7 46.272 1540.69 46.368H1533.57V45.04H1539.63L1538.85 45.456C1538.86 44.9653 1538.76 44.5333 1538.54 44.16C1538.33 43.7867 1538.04 43.4933 1537.66 43.28C1537.3 43.0667 1536.88 42.96 1536.4 42.96C1535.91 42.96 1535.48 43.0667 1535.1 43.28C1534.74 43.4933 1534.45 43.792 1534.24 44.176C1534.04 44.5493 1533.94 44.992 1533.94 45.504V45.824C1533.94 46.336 1534.05 46.7893 1534.29 47.184C1534.52 47.5787 1534.85 47.8827 1535.28 48.096C1535.71 48.3093 1536.2 48.416 1536.75 48.416C1537.23 48.416 1537.66 48.3413 1538.05 48.192C1538.43 48.0427 1538.77 47.808 1539.07 47.488L1540.14 48.72C1539.76 49.168 1539.28 49.5147 1538.69 49.76C1538.11 49.9947 1537.45 50.112 1536.7 50.112ZM1540.6 50L1544.36 45.104L1544.33 46.176L1540.74 41.456H1542.97L1545.48 44.816H1544.63L1547.16 41.456H1549.32L1545.7 46.176L1545.72 45.104L1549.46 50H1547.21L1544.57 46.432L1545.4 46.544L1542.81 50H1540.6Z" fill="#757575"/>
</g>
<defs>
<filter id="filter0_i_0_40" x="0.0476074" y="0" width="1920" height="88" filterUnits="userSpaceOnUse" color-interpolation-filters="sRGB">
<feFlood flood-opacity="0" result="BackgroundImageFix"/>
<feBlend mode="normal" in="SourceGraphic" in2="BackgroundImageFix" result="shape"/>
<feColorMatrix in="SourceAlpha" type="matrix" values="0 0 0 0 0 0 0 0 0 0 0 0 0 0 0 0 0 0 127 0" result="hardAlpha"/>
<feOffset dy="-1"/>
<feComposite in2="hardAlpha" operator="arithmetic" k2="-1" k3="1"/>
<feColorMatrix type="matrix" values="0 0 0 0 0.878431 0 0 0 0 0.878431 0 0 0 0 0.878431 0 0 0 1 0"/>
<feBlend mode="normal" in2="shape" result="effect1_innerShadow_0_40"/>
</filter>
</defs>
</svg>
