<svg width="130" height="17" viewBox="0 0 130 17" fill="none" xmlns="http://www.w3.org/2000/svg">
<path d="M9.47675 7.86358H18.3844V16.5H14.7128L14.2748 12.8076C13.8575 14.1288 13.1135 15.1093 12.0426 15.749C10.9718 16.3887 9.66449 16.7086 8.12079 16.7086C6.71615 16.7086 5.46449 16.3957 4.36582 15.7699C3.28105 15.144 2.42575 14.247 1.79993 13.0788C1.188 11.9106 0.882045 10.5477 0.882045 8.99007C0.882045 6.50066 1.62608 4.53278 3.11416 3.08642C4.60224 1.64007 6.91781 0.916888 10.0609 0.916888C11.8549 0.916888 13.4334 1.20894 14.7963 1.79305C16.1731 2.37715 17.3413 3.28113 18.3009 4.50497C17.6751 4.82483 16.4512 5.46457 14.6294 6.42417L14.1079 6.71623C13.5655 6.17384 12.9327 5.77053 12.2095 5.50629C11.4863 5.22815 10.7214 5.08907 9.91483 5.08907C8.57973 5.08907 7.58536 5.44371 6.93171 6.15298C6.27807 6.84834 5.95125 7.7106 5.95125 8.73974C5.95125 9.85232 6.29893 10.7493 6.9943 11.4308C7.70357 12.1123 8.78138 12.453 10.2277 12.453C10.8536 12.453 11.4585 12.3626 12.0426 12.1818C12.6407 12.001 13.1413 11.6881 13.5446 11.243H9.47675V7.86358ZM24.5372 8.15563C24.5233 8.99007 24.5163 10.2695 24.5163 11.994C24.5163 14.0662 24.5302 15.5682 24.5581 16.5H19.6349L19.6557 14.1427C19.6836 11.556 19.6975 9.56027 19.6975 8.15563C19.6975 6.82053 19.6836 4.92914 19.6557 2.48146L19.6349 0.228477H24.5581C24.5302 2.20331 24.5163 3.81656 24.5163 5.06821C24.5163 6.45894 24.5233 7.48808 24.5372 8.15563ZM32.5354 16.7086C30.1573 16.7086 28.4049 16.1662 27.2784 15.0815C26.1659 13.9828 25.6096 12.5434 25.6096 10.7632C25.6096 9.02483 26.1659 7.61325 27.2784 6.52848C28.4049 5.44371 30.1573 4.90132 32.5354 4.90132C34.1347 4.90132 35.4698 5.16556 36.5407 5.69404C37.6255 6.20861 38.4251 6.91093 38.9397 7.80099C39.4543 8.67715 39.7116 9.66457 39.7116 10.7632C39.7116 12.5573 39.1135 13.9967 37.9175 15.0815C36.7354 16.1662 34.9414 16.7086 32.5354 16.7086ZM32.6188 13.1623C33.5228 13.1623 34.1973 12.9467 34.6424 12.5156C35.0874 12.0844 35.3099 11.5073 35.3099 10.7841C35.3099 10.1026 35.0874 9.54636 34.6424 9.11523C34.1973 8.6702 33.5228 8.44768 32.6188 8.44768C31.7149 8.44768 31.0543 8.66325 30.6371 9.09437C30.2198 9.5255 30.0112 10.0887 30.0112 10.7841C30.0112 11.5073 30.2198 12.0844 30.6371 12.5156C31.0543 12.9467 31.7149 13.1623 32.6188 13.1623ZM49.8151 4.90132C50.7469 4.90132 51.5744 5.18642 52.2975 5.75662C53.0346 6.31291 53.6048 7.05695 54.0081 7.98874C54.4115 8.90662 54.6131 9.88709 54.6131 10.9301C54.6131 11.9871 54.4115 12.9606 54.0081 13.8507C53.6048 14.7268 53.0416 15.4222 52.3184 15.9368C51.5952 16.4513 50.7816 16.7086 49.8777 16.7086C48.8207 16.7086 47.9028 16.4861 47.124 16.0411C46.3452 15.5821 45.7611 14.8659 45.3717 13.8924L44.7667 16.5H40.7615C40.8449 13.8854 40.8866 11.1805 40.8866 8.3851C40.8866 5.56192 40.8449 2.85695 40.7615 0.270199H45.476L45.4134 2.83609C45.3439 4.64404 45.3091 6.25728 45.3091 7.67583C45.6846 6.73013 46.2548 6.03477 47.0197 5.58974C47.7985 5.13079 48.7303 4.90132 49.8151 4.90132ZM47.6873 13.204C48.3548 13.204 48.8833 12.9815 49.2727 12.5364C49.6621 12.0914 49.8568 11.5142 49.8568 10.805C49.8568 10.1652 49.6413 9.65066 49.2101 9.26126C48.7929 8.85795 48.2714 8.65629 47.6456 8.65629C47.3257 8.65629 46.9919 8.73278 46.6442 8.88576C46.2965 9.02483 45.9975 9.26126 45.7472 9.59503C45.4969 9.9149 45.3717 10.3182 45.3717 10.805C45.3717 11.6672 45.5664 12.2861 45.9558 12.6616C46.3452 13.0232 46.9224 13.204 47.6873 13.204ZM69.2396 13.0371C69.2396 13.5099 69.2952 13.8437 69.4064 14.0384C69.5177 14.2331 69.7402 14.3722 70.074 14.4556L69.9905 16.4166C69.5455 16.4861 69.1561 16.5348 68.8223 16.5626C68.5025 16.5904 68.0713 16.6043 67.529 16.6043C66.3329 16.6043 65.5402 16.3401 65.1508 15.8116C64.7614 15.2692 64.5667 14.5808 64.5667 13.7464V13.2248C64.1634 14.3652 63.5723 15.2136 62.7935 15.7699C62.0286 16.3262 61.0482 16.6043 59.8521 16.6043C58.4614 16.6043 57.4114 16.3262 56.7021 15.7699C56.0068 15.2136 55.6591 14.3861 55.6591 13.2874C55.6591 12.3834 55.9581 11.6742 56.5561 11.1596C57.1541 10.645 58.079 10.2904 59.3306 10.0957C58.2737 9.3447 57.2167 8.69106 56.1598 8.13477C56.9942 7.07781 57.9468 6.27815 59.0177 5.73576C60.0886 5.17947 61.3889 4.90132 62.9187 4.90132C65.0604 4.90132 66.6458 5.36722 67.675 6.29901C68.718 7.21689 69.2396 8.63543 69.2396 10.5546V13.0371ZM63.3568 8.57285C62.6475 8.57285 62.0217 8.69106 61.4793 8.92748C60.9369 9.16391 60.4501 9.51854 60.019 9.99139C60.8535 9.89404 61.8965 9.84536 63.1482 9.84536C63.6627 9.84536 64.0243 9.78278 64.2329 9.65762C64.4415 9.53245 64.5458 9.37252 64.5458 9.17781C64.5458 9.01093 64.4415 8.87185 64.2329 8.7606C64.0243 8.63543 63.7323 8.57285 63.3568 8.57285ZM61.1664 13.204C61.9452 13.204 62.6475 13.0579 63.2733 12.7659C63.8992 12.4599 64.3303 12.0636 64.5667 11.5768V11.0344C64.2329 11.2013 63.8644 11.3334 63.4611 11.4308C63.0578 11.5142 62.571 11.5977 62.0008 11.6811L61.2498 11.8063C60.471 11.9593 60.0816 12.2235 60.0816 12.599C60.0816 13.0023 60.4432 13.204 61.1664 13.204ZM75.8151 8.15563C75.8012 8.99007 75.7943 10.2695 75.7943 11.994C75.7943 14.0662 75.8082 15.5682 75.836 16.5H70.9128L70.9337 14.1427C70.9615 11.556 70.9754 9.56027 70.9754 8.15563C70.9754 6.82053 70.9615 4.92914 70.9337 2.48146L70.9128 0.228477H75.836C75.8082 2.20331 75.7943 3.81656 75.7943 5.06821C75.7943 6.45894 75.8012 7.48808 75.8151 8.15563ZM95.0157 5.73576C92.8322 5.66623 90.7114 5.6245 88.6531 5.6106V16.5H83.4379V5.6106C81.3657 5.6245 79.2518 5.66623 77.0961 5.73576V1.35497H95.0157V5.73576ZM107.143 13.0371C107.143 13.5099 107.199 13.8437 107.31 14.0384C107.421 14.2331 107.644 14.3722 107.977 14.4556L107.894 16.4166C107.449 16.4861 107.059 16.5348 106.726 16.5626C106.406 16.5904 105.975 16.6043 105.432 16.6043C104.236 16.6043 103.444 16.3401 103.054 15.8116C102.665 15.2692 102.47 14.5808 102.47 13.7464V13.2248C102.067 14.3652 101.476 15.2136 100.697 15.7699C99.9319 16.3262 98.9515 16.6043 97.7555 16.6043C96.3647 16.6043 95.3147 16.3262 94.6055 15.7699C93.9101 15.2136 93.5624 14.3861 93.5624 13.2874C93.5624 12.3834 93.8614 11.6742 94.4594 11.1596C95.0574 10.645 95.9823 10.2904 97.2339 10.0957C96.177 9.3447 95.12 8.69106 94.0631 8.13477C94.8975 7.07781 95.8502 6.27815 96.921 5.73576C97.9919 5.17947 99.2922 4.90132 100.822 4.90132C102.964 4.90132 104.549 5.36722 105.578 6.29901C106.621 7.21689 107.143 8.63543 107.143 10.5546V13.0371ZM101.26 8.57285C100.551 8.57285 99.925 8.69106 99.3826 8.92748C98.8402 9.16391 98.3535 9.51854 97.9223 9.99139C98.7568 9.89404 99.7998 9.84536 101.051 9.84536C101.566 9.84536 101.928 9.78278 102.136 9.65762C102.345 9.53245 102.449 9.37252 102.449 9.17781C102.449 9.01093 102.345 8.87185 102.136 8.7606C101.928 8.63543 101.636 8.57285 101.26 8.57285ZM99.0697 13.204C99.8485 13.204 100.551 13.0579 101.177 12.7659C101.802 12.4599 102.234 12.0636 102.47 11.5768V11.0344C102.136 11.2013 101.768 11.3334 101.364 11.4308C100.961 11.5142 100.474 11.5977 99.9041 11.6811L99.1531 11.8063C98.3743 11.9593 97.9849 12.2235 97.9849 12.599C97.9849 13.0023 98.3465 13.204 99.0697 13.204ZM113.718 8.15563C113.705 8.99007 113.698 10.2695 113.698 11.994C113.698 14.0662 113.712 15.5682 113.739 16.5H108.816L108.837 14.1427C108.865 11.556 108.879 9.56027 108.879 8.15563C108.879 6.82053 108.865 4.92914 108.837 2.48146L108.816 0.228477H113.739C113.712 2.20331 113.698 3.81656 113.698 5.06821C113.698 6.45894 113.705 7.48808 113.718 8.15563ZM129.727 5.08907L124.554 9.80364C126.32 12.307 127.968 14.5391 129.498 16.5H123.97L122.906 14.7894C122.21 13.6351 121.751 12.8841 121.529 12.5364L119.797 14.1219V16.5H114.999C115.111 13.8576 115.166 11.1805 115.166 8.46854C115.166 5.74272 115.111 3.00993 114.999 0.270199H119.797V9.11523C121.146 7.73841 122.419 6.39636 123.615 5.08907H129.727Z" fill="black"/>
<path d="M9.47675 7.86358V6.86358H8.47675V7.86358H9.47675ZM18.3844 7.86358H19.3844V6.86358H18.3844V7.86358ZM18.3844 16.5V17.5H19.3844V16.5H18.3844ZM14.7128 16.5L13.7198 16.6178L13.8245 17.5H14.7128V16.5ZM14.2748 12.8076L15.2678 12.6898L13.3212 12.5065L14.2748 12.8076ZM12.0426 15.749L12.5555 16.6075L12.5555 16.6075L12.0426 15.749ZM4.36582 15.7699L3.86609 16.6361L3.87087 16.6388L4.36582 15.7699ZM1.79993 13.0788L0.914056 13.5428L0.918445 13.551L1.79993 13.0788ZM3.11416 3.08642L3.81115 3.80351L3.81115 3.80351L3.11416 3.08642ZM14.7963 1.79305L14.4024 2.7122L14.4057 2.71363L14.7963 1.79305ZM18.3009 4.50497L18.756 5.3954L19.8367 4.84304L19.0879 3.88794L18.3009 4.50497ZM14.6294 6.42417L14.1634 5.5394L14.152 5.54539L14.1408 5.55167L14.6294 6.42417ZM14.1079 6.71623L13.4008 7.42333L13.936 7.95859L14.5965 7.58873L14.1079 6.71623ZM12.2095 5.50629L11.8505 6.43964L11.8584 6.44266L11.8663 6.44556L12.2095 5.50629ZM6.93171 6.15298L7.66038 6.83792L7.66707 6.83066L6.93171 6.15298ZM6.9943 11.4308L6.29433 12.145L6.30147 12.1519L6.9943 11.4308ZM12.0426 12.1818L11.7532 11.2246L11.747 11.2265L12.0426 12.1818ZM13.5446 11.243L14.2856 11.9146L15.8004 10.243H13.5446V11.243ZM9.47675 11.243H8.47675V12.243H9.47675V11.243ZM9.47675 8.86358H18.3844V6.86358H9.47675V8.86358ZM17.3844 7.86358V16.5H19.3844V7.86358H17.3844ZM18.3844 15.5H14.7128V17.5H18.3844V15.5ZM15.7059 16.3822L15.2678 12.6898L13.2817 12.9254L13.7198 16.6178L15.7059 16.3822ZM13.3212 12.5065C12.9689 13.622 12.3667 14.3906 11.5298 14.8905L12.5555 16.6075C13.8603 15.828 14.7462 14.6356 15.2283 13.1087L13.3212 12.5065ZM11.5298 14.8905C10.6469 15.418 9.52655 15.7086 8.12079 15.7086V17.7086C9.80244 17.7086 11.2967 17.3595 12.5555 16.6075L11.5298 14.8905ZM8.12079 15.7086C6.87002 15.7086 5.7924 15.4316 4.86077 14.9009L3.87087 16.6388C5.13659 17.3598 6.56228 17.7086 8.12079 17.7086V15.7086ZM4.86554 14.9037C3.95182 14.3765 3.22455 13.6205 2.68141 12.6066L0.918445 13.551C1.62695 14.8736 2.61028 15.9115 3.8661 16.6361L4.86554 14.9037ZM2.68576 12.6148C2.1613 11.6136 1.88204 10.4153 1.88204 8.99007H-0.117955C-0.117955 10.6801 0.214705 12.2076 0.914094 13.5428L2.68576 12.6148ZM1.88204 8.99007C1.88204 6.71283 2.55476 5.02468 3.81115 3.80351L2.41718 2.36934C0.697412 4.04089 -0.117955 6.2885 -0.117955 8.99007H1.88204ZM3.81115 3.80351C5.03588 2.61312 7.04681 1.91689 10.0609 1.91689V-0.0831123C6.7888 -0.0831123 4.16861 0.667013 2.41718 2.36934L3.81115 3.80351ZM10.0609 1.91689C11.7473 1.91689 13.1872 2.19139 14.4024 2.71219L15.1902 0.873901C13.6796 0.226494 11.9625 -0.0831123 10.0609 -0.0831123V1.91689ZM14.4057 2.71363C15.6206 3.22901 16.6544 4.02572 17.514 5.122L19.0879 3.88794C18.0282 2.53653 16.7256 1.52529 15.1868 0.872465L14.4057 2.71363ZM17.8458 3.61453C17.2136 3.93765 15.9844 4.58022 14.1634 5.5394L15.0954 7.30894C16.9181 6.34891 18.1366 5.71202 18.756 5.3954L17.8458 3.61453ZM14.1408 5.55167L13.6193 5.84372L14.5965 7.58873L15.118 7.29668L14.1408 5.55167ZM14.815 6.00912C14.1692 5.36338 13.4121 4.88104 12.5527 4.56703L11.8663 6.44556C12.4533 6.66002 12.9617 6.98431 13.4008 7.42333L14.815 6.00912ZM12.5685 4.57295C11.7261 4.24894 10.8391 4.08907 9.91483 4.08907V6.08907C10.6038 6.08907 11.2466 6.20735 11.8505 6.43964L12.5685 4.57295ZM9.91483 4.08907C8.41117 4.08907 7.10325 4.49123 6.19636 5.4753L7.66707 6.83066C8.06746 6.39619 8.74828 6.08907 9.91483 6.08907V4.08907ZM6.20309 5.46807C5.36072 6.3642 4.95125 7.47791 4.95125 8.73974H6.95125C6.95125 7.94329 7.19542 7.33249 7.66034 6.83789L6.20309 5.46807ZM4.95125 8.73974C4.95125 10.0792 5.37915 11.2481 6.29437 12.145L7.69422 10.7166C7.21872 10.2506 6.95125 9.62541 6.95125 8.73974H4.95125ZM6.30147 12.1519C7.26869 13.0812 8.6434 13.453 10.2277 13.453V11.453C8.91936 11.453 8.13844 11.1433 7.68712 10.7097L6.30147 12.1519ZM10.2277 13.453C10.9514 13.453 11.6562 13.3482 12.3383 13.1371L11.747 11.2265C11.2609 11.377 10.7557 11.453 10.2277 11.453V13.453ZM12.332 13.139C13.0964 12.9079 13.7554 12.4996 14.2856 11.9146L12.8036 10.5715C12.5272 10.8766 12.1849 11.0941 11.7533 11.2246L12.332 13.139ZM13.5446 10.243H9.47675V12.243H13.5446V10.243ZM10.4767 11.243V7.86358H8.47675V11.243H10.4767ZM24.5372 8.15563L25.5371 8.17229L25.5374 8.15355L25.537 8.1348L24.5372 8.15563ZM24.5581 16.5V17.5H25.5884L25.5576 16.4702L24.5581 16.5ZM19.6349 16.5L18.6349 16.4912L18.626 17.5H19.6349V16.5ZM19.6557 14.1427L18.6558 14.132L18.6558 14.1339L19.6557 14.1427ZM19.6557 2.48146L18.6558 2.49072L18.6558 2.49282L19.6557 2.48146ZM19.6349 0.228477V-0.771523H18.6256L18.6349 0.237736L19.6349 0.228477ZM24.5581 0.228477L25.558 0.24256L25.5722 -0.771523H24.5581V0.228477ZM23.5373 8.13897C23.5233 8.98215 23.5163 10.2685 23.5163 11.994H25.5163C25.5163 10.2706 25.5233 8.99799 25.5371 8.17229L23.5373 8.13897ZM23.5163 11.994C23.5163 14.0672 23.5302 15.582 23.5585 16.5298L25.5576 16.4702C25.5303 15.5544 25.5163 14.0653 25.5163 11.994H23.5163ZM24.5581 15.5H19.6349V17.5H24.5581V15.5ZM20.6348 16.5088L20.6557 14.1516L18.6558 14.1339L18.6349 16.4912L20.6348 16.5088ZM20.6557 14.1535C20.6835 11.5656 20.6975 9.56566 20.6975 8.15563H18.6975C18.6975 9.55487 18.6836 11.5464 18.6558 14.132L20.6557 14.1535ZM20.6975 8.15563C20.6975 6.81484 20.6835 4.91901 20.6557 2.47009L18.6558 2.49282C18.6836 4.93927 18.6975 6.82622 18.6975 8.15563H20.6975ZM20.6557 2.4722L20.6348 0.219218L18.6349 0.237736L18.6558 2.49072L20.6557 2.4722ZM19.6349 1.22848H24.5581V-0.771523H19.6349V1.22848ZM23.5582 0.214394C23.5303 2.19158 23.5163 3.80999 23.5163 5.06821H25.5163C25.5163 3.82312 25.5302 2.21504 25.558 0.24256L23.5582 0.214394ZM23.5163 5.06821C23.5163 6.46015 23.5233 7.49795 23.5374 8.17646L25.537 8.1348C25.5233 7.47821 25.5163 6.45773 25.5163 5.06821H23.5163ZM27.2784 15.0815L26.5757 15.7931L26.5848 15.8018L27.2784 15.0815ZM27.2784 6.52848L26.5848 5.80814L26.5803 5.81248L27.2784 6.52848ZM36.5407 5.69404L36.0982 6.59078L36.1051 6.59422L36.1121 6.59754L36.5407 5.69404ZM38.9397 7.80099L38.074 8.30151L38.0774 8.30742L38.9397 7.80099ZM37.9175 15.0815L37.2457 14.3407L37.2414 14.3447L37.9175 15.0815ZM34.6424 9.11523L33.9352 9.82234L33.9409 9.82795L33.9466 9.83347L34.6424 9.11523ZM30.6371 9.09437L29.9185 8.39895L29.9185 8.39895L30.6371 9.09437ZM30.6371 12.5156L31.3557 11.8201L31.3557 11.8201L30.6371 12.5156ZM32.5354 15.7086C30.2843 15.7086 28.8352 15.1922 27.9721 14.3611L26.5848 15.8018C27.9747 17.1402 30.0302 17.7086 32.5354 17.7086V15.7086ZM27.9811 14.3699C27.0857 13.4857 26.6096 12.3163 26.6096 10.7632H24.6096C24.6096 12.7704 25.246 14.4799 26.5758 15.793L27.9811 14.3699ZM26.6096 10.7632C26.6096 9.2593 27.0808 8.11784 27.9765 7.24448L26.5803 5.81248C25.2509 7.10865 24.6096 8.79037 24.6096 10.7632H26.6096ZM27.9721 7.2488C28.8352 6.4177 30.2843 5.90132 32.5354 5.90132V3.90132C30.0302 3.90132 27.9747 4.46972 26.5848 5.80816L27.9721 7.2488ZM32.5354 5.90132C34.0309 5.90132 35.2034 6.14924 36.0982 6.59078L36.9833 4.7973C35.7362 4.18189 34.2386 3.90132 32.5354 3.90132V5.90132ZM36.1121 6.59754C37.0453 7.04019 37.6771 7.61498 38.074 8.3015L39.8054 7.30049C39.1732 6.20687 38.2057 5.37703 36.9693 4.79054L36.1121 6.59754ZM38.0774 8.30742C38.4945 9.01763 38.7116 9.82767 38.7116 10.7632H40.7116C40.7116 9.50147 40.414 8.33667 39.802 7.29457L38.0774 8.30742ZM38.7116 10.7632C38.7116 12.31 38.2082 13.4678 37.2457 14.3407L38.5893 15.8222C40.0189 14.5256 40.7116 12.8046 40.7116 10.7632H38.7116ZM37.2414 14.3447C36.3174 15.1926 34.8131 15.7086 32.5354 15.7086V17.7086C35.0697 17.7086 37.1534 17.1399 38.5936 15.8183L37.2414 14.3447ZM32.6188 14.1623C33.664 14.1623 34.636 13.914 35.3382 13.2338L33.9466 11.7973C33.7587 11.9793 33.3816 12.1623 32.6188 12.1623V14.1623ZM35.3382 13.2338C36.0103 12.5827 36.3099 11.7289 36.3099 10.7841H34.3099C34.3099 11.2857 34.1645 11.5862 33.9466 11.7973L35.3382 13.2338ZM36.3099 10.7841C36.3099 9.86176 35.9981 9.03628 35.3382 8.39699L33.9466 9.83347C34.1767 10.0564 34.3099 10.3435 34.3099 10.7841H36.3099ZM35.3495 8.40813C34.6482 7.70681 33.6717 7.44768 32.6188 7.44768V9.44768C33.3739 9.44768 33.7465 9.63358 33.9352 9.82234L35.3495 8.40813ZM32.6188 7.44768C31.5801 7.44768 30.6014 7.69328 29.9185 8.39895L31.3557 9.78979C31.5072 9.63321 31.8497 9.44768 32.6188 9.44768V7.44768ZM29.9185 8.39895C29.292 9.04624 29.0112 9.87363 29.0112 10.7841H31.0112C31.0112 10.3039 31.1476 10.0048 31.3557 9.78979L29.9185 8.39895ZM29.0112 10.7841C29.0112 11.7101 29.2848 12.5562 29.9185 13.211L31.3557 11.8201C31.1548 11.6126 31.0112 11.3044 31.0112 10.7841H29.0112ZM29.9185 13.211C30.6014 13.9167 31.5801 14.1623 32.6188 14.1623V12.1623C31.8497 12.1623 31.5072 11.9767 31.3557 11.8201L29.9185 13.211ZM52.2975 5.75662L51.6784 6.54189L51.6867 6.54844L51.6951 6.55481L52.2975 5.75662ZM54.0081 7.98874L53.0904 8.38597L53.0926 8.39102L54.0081 7.98874ZM54.0081 13.8507L54.9165 14.2688L54.919 14.2634L54.0081 13.8507ZM52.3184 15.9368L52.8982 16.7515L52.3184 15.9368ZM47.124 16.0411L46.6163 16.9027L46.6279 16.9093L47.124 16.0411ZM45.3717 13.8924L46.3002 13.521L45.1174 10.5639L44.3976 13.6664L45.3717 13.8924ZM44.7667 16.5V17.5H45.5613L45.7409 16.726L44.7667 16.5ZM40.7615 16.5L39.762 16.4681L39.729 17.5H40.7615V16.5ZM40.7615 0.270199V-0.729801H39.7287L39.762 0.30244L40.7615 0.270199ZM45.476 0.270199L46.4757 0.294582L46.5007 -0.729801H45.476V0.270199ZM45.4134 2.83609L46.4128 2.87453L46.4131 2.86048L45.4134 2.83609ZM45.3091 7.67583H44.3091L46.2385 8.04486L45.3091 7.67583ZM47.0197 5.58974L47.5226 6.4541L47.5274 6.45127L47.0197 5.58974ZM49.2101 9.26126L48.5151 9.98025L48.5273 9.99201L48.5398 10.0034L49.2101 9.26126ZM46.6442 8.88576L47.0156 9.81424L47.0314 9.80792L47.047 9.80108L46.6442 8.88576ZM45.7472 9.59503L46.5347 10.2113L46.541 10.2033L46.5472 10.195L45.7472 9.59503ZM45.9558 12.6616L45.2617 13.3814L45.2685 13.388L45.2754 13.3944L45.9558 12.6616ZM49.8151 5.90132C50.5251 5.90132 51.1339 6.11255 51.6784 6.54189L52.9167 4.97135C52.0149 4.26029 50.9686 3.90132 49.8151 3.90132V5.90132ZM51.6951 6.55481C52.2808 6.99682 52.7488 7.59665 53.0904 8.38596L54.9259 7.59152C54.4609 6.51726 53.7885 5.62901 52.9 4.95843L51.6951 6.55481ZM53.0926 8.39102C53.438 9.17697 53.6131 10.0199 53.6131 10.9301H55.6131C55.6131 9.75431 55.3849 8.63627 54.9237 7.58647L53.0926 8.39102ZM53.6131 10.9301C53.6131 11.8565 53.4372 12.6878 53.0973 13.4379L54.919 14.2634C55.3857 13.2333 55.6131 12.1177 55.6131 10.9301H53.6131ZM53.0998 13.4325C52.7629 14.1642 52.3073 14.7173 51.7386 15.122L52.8982 16.7515C53.7758 16.127 54.4467 15.2894 54.9165 14.2688L53.0998 13.4325ZM51.7386 15.122C51.1881 15.5137 50.578 15.7086 49.8777 15.7086V17.7086C50.9853 17.7086 52.0023 17.389 52.8982 16.7515L51.7386 15.122ZM49.8777 15.7086C48.9635 15.7086 48.2229 15.5172 47.6202 15.1728L46.6279 16.9093C47.5828 17.4549 48.6779 17.7086 49.8777 17.7086V15.7086ZM47.6317 15.1795C47.0731 14.8503 46.6211 14.3233 46.3002 13.521L44.4432 14.2638C44.9011 15.4085 45.6174 16.3139 46.6163 16.9026L47.6317 15.1795ZM44.3976 13.6664L43.7926 16.274L45.7409 16.726L46.3458 14.1184L44.3976 13.6664ZM44.7667 15.5H40.7615V17.5H44.7667V15.5ZM41.7609 16.5319C41.8447 13.906 41.8866 11.1904 41.8866 8.3851H39.8866C39.8866 11.1705 39.845 13.8649 39.762 16.4681L41.7609 16.5319ZM41.8866 8.3851C41.8866 5.55213 41.8448 2.83637 41.7609 0.237957L39.762 0.30244C39.845 2.87754 39.8866 5.57172 39.8866 8.3851H41.8866ZM40.7615 1.2702H45.476V-0.729801H40.7615V1.2702ZM44.4763 0.245816L44.4137 2.81171L46.4131 2.86048L46.4757 0.294582L44.4763 0.245816ZM44.4142 2.79766C44.3443 4.61512 44.3091 6.24155 44.3091 7.67583H46.3091C46.3091 6.27302 46.3435 4.67296 46.4127 2.87453L44.4142 2.79766ZM46.2385 8.04486C46.5443 7.2747 46.9797 6.76995 47.5226 6.45408L46.5168 4.72539C45.5299 5.29958 44.8249 6.18557 44.3797 7.3068L46.2385 8.04486ZM47.5274 6.45127C48.1242 6.09959 48.8731 5.90132 49.8151 5.90132V3.90132C48.5876 3.90132 47.4728 4.162 46.512 4.7282L47.5274 6.45127ZM47.6873 14.204C48.6018 14.204 49.4203 13.8863 50.0253 13.1949L48.5201 11.8779C48.3463 12.0766 48.1079 12.204 47.6873 12.204V14.204ZM50.0253 13.1949C50.6047 12.5328 50.8568 11.7058 50.8568 10.805H48.8568C48.8568 11.3227 48.7195 11.65 48.5201 11.8779L50.0253 13.1949ZM50.8568 10.805C50.8568 9.91433 50.5441 9.11858 49.8804 8.51916L48.5398 10.0034C48.7384 10.1827 48.8568 10.4161 48.8568 10.805H50.8568ZM49.9051 8.54227C49.286 7.94374 48.5084 7.65629 47.6456 7.65629V9.65629C48.0344 9.65629 48.2998 9.77216 48.5151 9.98025L49.9051 8.54227ZM47.6456 7.65629C47.1635 7.65629 46.6927 7.77193 46.2415 7.97045L47.047 9.80108C47.2912 9.69363 47.4879 9.65629 47.6456 9.65629V7.65629ZM46.2728 7.95729C45.7359 8.17205 45.2947 8.53176 44.9472 8.99503L46.5472 10.195C46.7004 9.99076 46.8572 9.87762 47.0156 9.81424L46.2728 7.95729ZM44.9597 8.97872C44.5459 9.50751 44.3717 10.1406 44.3717 10.805H46.3717C46.3717 10.4958 46.4479 10.3223 46.5347 10.2113L44.9597 8.97872ZM44.3717 10.805C44.3717 11.7824 44.5874 12.7312 45.2617 13.3814L46.65 11.9417C46.5455 11.841 46.3717 11.552 46.3717 10.805H44.3717ZM45.2754 13.3944C45.9171 13.9903 46.7801 14.204 47.6873 14.204V12.204C47.0646 12.204 46.7733 12.056 46.6363 11.9288L45.2754 13.3944ZM69.4064 14.0384L68.5382 14.5345L68.5382 14.5346L69.4064 14.0384ZM70.074 14.4556L71.0731 14.4981L71.1078 13.6833L70.3165 13.4855L70.074 14.4556ZM69.9905 16.4166L70.1449 17.4046L70.9548 17.278L70.9896 16.4591L69.9905 16.4166ZM68.8223 16.5626L68.7393 15.566L68.7357 15.5663L68.8223 16.5626ZM65.1508 15.8116L64.3384 16.3948L64.3458 16.4048L65.1508 15.8116ZM64.5667 13.2248H65.5667L63.6239 12.8914L64.5667 13.2248ZM62.7935 15.7699L62.2123 14.9561L62.2054 14.9611L62.7935 15.7699ZM56.7021 15.7699L56.0774 16.5508L56.085 16.5567L56.7021 15.7699ZM56.5561 11.1596L57.2083 11.9176L57.2083 11.9176L56.5561 11.1596ZM59.3306 10.0957L59.4843 11.0838L61.9155 10.7056L59.9098 9.28052L59.3306 10.0957ZM56.1598 8.13477L55.3749 7.51512L54.6294 8.45937L55.694 9.01969L56.1598 8.13477ZM59.0177 5.73576L59.4696 6.62791L59.4787 6.62317L59.0177 5.73576ZM67.675 6.29901L67.0037 7.04038L67.0144 7.04972L67.675 6.29901ZM61.4793 8.92748L61.8789 9.84418L61.8789 9.84418L61.4793 8.92748ZM60.019 9.99139L59.2801 9.31764L57.4775 11.2947L60.1349 10.9847L60.019 9.99139ZM64.2329 9.65762L63.7184 8.80012L63.7184 8.80012L64.2329 9.65762ZM64.2329 8.7606L63.7184 9.61809L63.7401 9.63107L63.7623 9.64295L64.2329 8.7606ZM63.2733 12.7659L63.6962 13.6721L63.7044 13.6683L63.7125 13.6643L63.2733 12.7659ZM64.5667 11.5768L65.4662 12.0137L65.5667 11.8068V11.5768H64.5667ZM64.5667 11.0344H65.5667V9.4164L64.1195 10.14L64.5667 11.0344ZM63.4611 11.4308L63.6637 12.4101L63.6798 12.4067L63.6957 12.4029L63.4611 11.4308ZM62.0008 11.6811L61.856 10.6917L61.8462 10.6931L61.8364 10.6947L62.0008 11.6811ZM61.2498 11.8063L61.0854 10.8199L61.0712 10.8223L61.0571 10.825L61.2498 11.8063ZM68.2396 13.0371C68.2396 13.5307 68.2875 14.0959 68.5382 14.5345L70.2747 13.5423C70.2996 13.586 70.2849 13.5812 70.2677 13.4777C70.2517 13.3817 70.2396 13.2383 70.2396 13.0371H68.2396ZM68.5382 14.5346C68.8424 15.0668 69.3725 15.311 69.8315 15.4258L70.3165 13.4855C70.2706 13.474 70.2379 13.4629 70.2159 13.4541C70.1939 13.4454 70.1855 13.44 70.1868 13.4407C70.1883 13.4417 70.2005 13.4495 70.2178 13.4669C70.2357 13.4847 70.2561 13.5098 70.2747 13.5423L68.5382 14.5346ZM69.0749 14.4131L68.9914 16.374L70.9896 16.4591L71.0731 14.4981L69.0749 14.4131ZM69.8362 15.4285C69.4073 15.4956 69.0427 15.5408 68.7393 15.566L68.9054 17.5591C69.2695 17.5288 69.6837 17.4766 70.1449 17.4046L69.8362 15.4285ZM68.7357 15.5663C68.4575 15.5905 68.0592 15.6043 67.529 15.6043V17.6043C68.0835 17.6043 68.5474 17.5903 68.909 17.5588L68.7357 15.5663ZM67.529 15.6043C66.4016 15.6043 66.0464 15.3413 65.9559 15.2184L64.3458 16.4048C65.034 17.3388 66.2642 17.6043 67.529 17.6043V15.6043ZM65.9631 15.2284C65.7233 14.8943 65.5667 14.4243 65.5667 13.7464H63.5667C63.5667 14.7373 63.7995 15.6441 64.3385 16.3948L65.9631 15.2284ZM65.5667 13.7464V13.2248H63.5667V13.7464H65.5667ZM63.6239 12.8914C63.2709 13.8896 62.7848 14.5472 62.2123 14.9561L63.3748 16.5836C64.3598 15.88 65.0559 14.8409 65.5095 13.5583L63.6239 12.8914ZM62.2054 14.9611C61.6519 15.3636 60.8932 15.6043 59.8521 15.6043V17.6043C61.2032 17.6043 62.4053 17.2887 63.3817 16.5786L62.2054 14.9611ZM59.8521 15.6043C58.5704 15.6043 57.7796 15.344 57.3193 14.983L56.085 16.5567C57.0433 17.3083 58.3524 17.6043 59.8521 17.6043V15.6043ZM57.3268 14.989C56.9237 14.6665 56.6591 14.1605 56.6591 13.2874H54.6591C54.6591 14.6117 55.0899 15.7607 56.0774 16.5507L57.3268 14.989ZM56.6591 13.2874C56.6591 12.6274 56.8646 12.2134 57.2083 11.9176L55.9039 10.4016C55.0516 11.1349 54.6591 12.1395 54.6591 13.2874H56.6591ZM57.2083 11.9176C57.6034 11.5777 58.3158 11.2656 59.4843 11.0838L59.1769 9.10758C57.8421 9.31521 56.7048 9.71237 55.9039 10.4016L57.2083 11.9176ZM59.9098 9.28052C58.8197 8.50594 57.7249 7.82851 56.6255 7.24985L55.694 9.01969C56.7085 9.55361 57.7276 10.1835 58.7514 10.9109L59.9098 9.28052ZM56.9446 8.75441C57.7002 7.79742 58.5431 7.09709 59.4695 6.62786L58.5659 4.84366C57.3506 5.4592 56.2882 6.35821 55.3749 7.51512L56.9446 8.75441ZM59.4787 6.62317C60.3741 6.15801 61.5075 5.90132 62.9187 5.90132V3.90132C61.2703 3.90132 59.803 4.20093 58.5567 4.84836L59.4787 6.62317ZM62.9187 5.90132C64.942 5.90132 66.2362 6.34527 67.0038 7.04031L68.3462 5.55771C67.0555 4.38916 65.1788 3.90132 62.9187 3.90132V5.90132ZM67.0144 7.04972C67.7687 7.71354 68.2396 8.80872 68.2396 10.5546H70.2396C70.2396 8.46215 69.6674 6.72024 68.3356 5.54829L67.0144 7.04972ZM68.2396 10.5546V13.0371H70.2396V10.5546H68.2396ZM63.3568 7.57285C62.5368 7.57285 61.7706 7.70963 61.0797 8.01079L61.8789 9.84418C62.2727 9.67249 62.7582 9.57285 63.3568 9.57285V7.57285ZM61.0797 8.01079C60.3981 8.30788 59.7981 8.74942 59.2801 9.31764L60.758 10.6651C61.1021 10.2877 61.4757 10.0199 61.8789 9.84418L61.0797 8.01079ZM60.1349 10.9847C60.9172 10.8934 61.9185 10.8454 63.1482 10.8454V8.84536C61.8746 8.84536 60.7897 8.89469 59.9031 8.99813L60.1349 10.9847ZM63.1482 10.8454C63.6831 10.8454 64.2872 10.7912 64.7474 10.5151L63.7184 8.80012C63.7594 8.77553 63.7496 8.79319 63.6347 8.81308C63.5276 8.83161 63.3691 8.84536 63.1482 8.84536V10.8454ZM64.7474 10.5151C65.1703 10.2614 65.5458 9.81449 65.5458 9.17781H63.5458C63.5458 9.08523 63.574 8.9834 63.63 8.89752C63.6801 8.82075 63.7274 8.79477 63.7184 8.80012L64.7474 10.5151ZM65.5458 9.17781C65.5458 8.49537 65.0847 8.08153 64.7035 7.87824L63.7623 9.64295C63.7814 9.65314 63.7289 9.63009 63.6676 9.54834C63.5957 9.45251 63.5458 9.3202 63.5458 9.17781H65.5458ZM64.7474 7.9031C64.3208 7.64712 63.823 7.57285 63.3568 7.57285V9.57285C63.4912 9.57285 63.5857 9.58425 63.6479 9.59759C63.7099 9.61088 63.7272 9.62332 63.7184 9.61809L64.7474 7.9031ZM61.1664 14.204C62.0726 14.204 62.922 14.0334 63.6962 13.6721L62.8504 11.8597C62.373 12.0825 61.8178 12.204 61.1664 12.204V14.204ZM63.7125 13.6643C64.4808 13.2887 65.1072 12.7528 65.4662 12.0137L63.6672 11.1399C63.5533 11.3743 63.3175 11.6312 62.8341 11.8675L63.7125 13.6643ZM65.5667 11.5768V11.0344H63.5667V11.5768H65.5667ZM64.1195 10.14C63.8605 10.2695 63.5643 10.3772 63.2264 10.4587L63.6957 12.4029C64.1645 12.2897 64.6054 12.1331 65.0139 11.9289L64.1195 10.14ZM63.2585 10.4515C62.8802 10.5298 62.4138 10.61 61.856 10.6917L62.1456 12.6706C62.7282 12.5853 63.2354 12.4987 63.6637 12.4101L63.2585 10.4515ZM61.8364 10.6947L61.0854 10.8199L61.4142 12.7927L62.1652 12.6675L61.8364 10.6947ZM61.0571 10.825C60.614 10.9121 60.1693 11.0494 59.8122 11.2917C59.4216 11.5568 59.0816 11.9951 59.0816 12.599H61.0816C61.0816 12.688 61.0558 12.781 61.0088 12.8582C60.9665 12.9277 60.9268 12.9524 60.9352 12.9467C60.9445 12.9403 60.985 12.9158 61.0751 12.8836C61.1634 12.8521 61.2839 12.8187 61.4426 12.7875L61.0571 10.825ZM59.0816 12.599C59.0816 12.8539 59.1404 13.1247 59.291 13.3767C59.4409 13.6274 59.6491 13.8053 59.8657 13.9261C60.2687 14.1509 60.7446 14.204 61.1664 14.204V12.204C61.0292 12.204 60.9346 12.1942 60.8746 12.183C60.8124 12.1715 60.8099 12.1626 60.8399 12.1794C60.8757 12.1994 60.9483 12.2512 61.0078 12.3506C61.068 12.4514 61.0816 12.5458 61.0816 12.599H59.0816ZM75.8151 8.15563L76.815 8.17229L76.8153 8.15355L76.8149 8.1348L75.8151 8.15563ZM75.836 16.5V17.5H76.8663L76.8356 16.4702L75.836 16.5ZM70.9128 16.5L69.9129 16.4912L69.9039 17.5H70.9128V16.5ZM70.9337 14.1427L69.9337 14.132L69.9337 14.1339L70.9337 14.1427ZM70.9337 2.48146L69.9337 2.49072L69.9337 2.49282L70.9337 2.48146ZM70.9128 0.228477V-0.771523H69.9035L69.9129 0.237736L70.9128 0.228477ZM75.836 0.228477L76.8359 0.24256L76.8502 -0.771523H75.836V0.228477ZM74.8153 8.13897C74.8012 8.98215 74.7943 10.2685 74.7943 11.994H76.7943C76.7943 10.2706 76.8012 8.99799 76.815 8.17229L74.8153 8.13897ZM74.7943 11.994C74.7943 14.0672 74.8082 15.582 74.8364 16.5298L76.8356 16.4702C76.8082 15.5544 76.7943 14.0653 76.7943 11.994H74.7943ZM75.836 15.5H70.9128V17.5H75.836V15.5ZM71.9128 16.5088L71.9336 14.1516L69.9337 14.1339L69.9129 16.4912L71.9128 16.5088ZM71.9336 14.1535C71.9615 11.5656 71.9754 9.56566 71.9754 8.15563H69.9754C69.9754 9.55487 69.9615 11.5464 69.9337 14.132L71.9336 14.1535ZM71.9754 8.15563C71.9754 6.81484 71.9614 4.91901 71.9336 2.47009L69.9337 2.49282C69.9615 4.93927 69.9754 6.82622 69.9754 8.15563H71.9754ZM71.9336 2.4722L71.9128 0.219218L69.9129 0.237736L69.9337 2.49072L71.9336 2.4722ZM70.9128 1.22848H75.836V-0.771523H70.9128V1.22848ZM74.8361 0.214394C74.8083 2.19158 74.7943 3.80999 74.7943 5.06821H76.7943C76.7943 3.82312 76.8081 2.21504 76.8359 0.24256L74.8361 0.214394ZM74.7943 5.06821C74.7943 6.46015 74.8012 7.49795 74.8154 8.17646L76.8149 8.1348C76.8012 7.47821 76.7943 6.45773 76.7943 5.06821H74.7943ZM95.0157 5.73576L94.9838 6.73525L96.0157 6.76812V5.73576H95.0157ZM88.6531 5.6106L88.6598 4.61062L87.6531 4.60382V5.6106H88.6531ZM88.6531 16.5V17.5H89.6531V16.5H88.6531ZM83.4379 16.5H82.4379V17.5H83.4379V16.5ZM83.4379 5.6106H84.4379V4.60386L83.4311 4.61062L83.4379 5.6106ZM77.0961 5.73576H76.0961V6.76854L77.1284 6.73524L77.0961 5.73576ZM77.0961 1.35497V0.354968H76.0961V1.35497H77.0961ZM95.0157 1.35497H96.0157V0.354968H95.0157V1.35497ZM95.0475 4.73627C92.8562 4.66648 90.727 4.62459 88.6598 4.61062L88.6463 6.61057C90.6958 6.62442 92.8082 6.66597 94.9838 6.73525L95.0475 4.73627ZM87.6531 5.6106V16.5H89.6531V5.6106H87.6531ZM88.6531 15.5H83.4379V17.5H88.6531V15.5ZM84.4379 16.5V5.6106H82.4379V16.5H84.4379ZM83.4311 4.61062C81.3501 4.62459 79.2277 4.66648 77.0639 4.73628L77.1284 6.73524C79.2758 6.66597 81.3812 6.62442 83.4446 6.61057L83.4311 4.61062ZM78.0961 5.73576V1.35497H76.0961V5.73576H78.0961ZM77.0961 2.35497H95.0157V0.354968H77.0961V2.35497ZM94.0157 1.35497V5.73576H96.0157V1.35497H94.0157ZM107.31 14.0384L106.442 14.5345L106.442 14.5346L107.31 14.0384ZM107.977 14.4556L108.976 14.4981L109.011 13.6833L108.22 13.4855L107.977 14.4556ZM107.894 16.4166L108.048 17.4046L108.858 17.278L108.893 16.4591L107.894 16.4166ZM106.726 16.5626L106.643 15.566L106.639 15.5663L106.726 16.5626ZM103.054 15.8116L102.242 16.3948L102.249 16.4048L103.054 15.8116ZM102.47 13.2248H103.47L101.527 12.8914L102.47 13.2248ZM100.697 15.7699L100.116 14.9561L100.109 14.9611L100.697 15.7699ZM94.6055 15.7699L93.9807 16.5508L93.9883 16.5567L94.6055 15.7699ZM94.4594 11.1596L95.1117 11.9176L95.1117 11.9176L94.4594 11.1596ZM97.2339 10.0957L97.3876 11.0838L99.8189 10.7056L97.8131 9.28052L97.2339 10.0957ZM94.0631 8.13477L93.2782 7.51512L92.5327 8.45937L93.5973 9.01969L94.0631 8.13477ZM96.921 5.73576L97.3729 6.62791L97.382 6.62317L96.921 5.73576ZM105.578 6.29901L104.907 7.04038L104.918 7.04972L105.578 6.29901ZM99.3826 8.92748L99.7822 9.84418L99.7822 9.84418L99.3826 8.92748ZM97.9223 9.99139L97.1834 9.31764L95.3808 11.2947L98.0382 10.9847L97.9223 9.99139ZM102.136 9.65762L101.622 8.80012L101.622 8.80012L102.136 9.65762ZM102.136 8.7606L101.622 9.61809L101.643 9.63107L101.666 9.64295L102.136 8.7606ZM101.177 12.7659L101.6 13.6721L101.608 13.6683L101.616 13.6643L101.177 12.7659ZM102.47 11.5768L103.37 12.0137L103.47 11.8068V11.5768H102.47ZM102.47 11.0344H103.47V9.4164L102.023 10.14L102.47 11.0344ZM101.364 11.4308L101.567 12.4101L101.583 12.4067L101.599 12.4029L101.364 11.4308ZM99.9041 11.6811L99.7593 10.6917L99.7495 10.6931L99.7397 10.6947L99.9041 11.6811ZM99.1531 11.8063L98.9887 10.8199L98.9745 10.8223L98.9604 10.825L99.1531 11.8063ZM106.143 13.0371C106.143 13.5307 106.191 14.0959 106.442 14.5345L108.178 13.5423C108.203 13.586 108.188 13.5812 108.171 13.4777C108.155 13.3817 108.143 13.2383 108.143 13.0371H106.143ZM106.442 14.5346C106.746 15.0668 107.276 15.311 107.735 15.4258L108.22 13.4855C108.174 13.474 108.141 13.4629 108.119 13.4541C108.097 13.4454 108.089 13.44 108.09 13.4407C108.092 13.4417 108.104 13.4495 108.121 13.4669C108.139 13.4847 108.159 13.5098 108.178 13.5423L106.442 14.5346ZM106.978 14.4131L106.895 16.374L108.893 16.4591L108.976 14.4981L106.978 14.4131ZM107.739 15.4285C107.311 15.4956 106.946 15.5408 106.643 15.566L106.809 17.5591C107.173 17.5288 107.587 17.4766 108.048 17.4046L107.739 15.4285ZM106.639 15.5663C106.361 15.5905 105.962 15.6043 105.432 15.6043V17.6043C105.987 17.6043 106.451 17.5903 106.812 17.5588L106.639 15.5663ZM105.432 15.6043C104.305 15.6043 103.95 15.3413 103.859 15.2184L102.249 16.4048C102.937 17.3388 104.168 17.6043 105.432 17.6043V15.6043ZM103.866 15.2284C103.627 14.8943 103.47 14.4243 103.47 13.7464H101.47C101.47 14.7373 101.703 15.6441 102.242 16.3948L103.866 15.2284ZM103.47 13.7464V13.2248H101.47V13.7464H103.47ZM101.527 12.8914C101.174 13.8896 100.688 14.5472 100.116 14.9561L101.278 16.5836C102.263 15.88 102.959 14.8409 103.413 13.5583L101.527 12.8914ZM100.109 14.9611C99.5552 15.3636 98.7965 15.6043 97.7555 15.6043V17.6043C99.1065 17.6043 100.309 17.2887 101.285 16.5786L100.109 14.9611ZM97.7555 15.6043C96.4737 15.6043 95.6829 15.344 95.2226 14.983L93.9883 16.5567C94.9466 17.3083 96.2557 17.6043 97.7555 17.6043V15.6043ZM95.2302 14.989C94.827 14.6665 94.5624 14.1605 94.5624 13.2874H92.5624C92.5624 14.6117 92.9932 15.7607 93.9808 16.5507L95.2302 14.989ZM94.5624 13.2874C94.5624 12.6274 94.7679 12.2134 95.1117 11.9176L93.8072 10.4016C92.9549 11.1349 92.5624 12.1395 92.5624 13.2874H94.5624ZM95.1117 11.9176C95.5067 11.5777 96.2191 11.2656 97.3876 11.0838L97.0802 9.10758C95.7454 9.31521 94.6082 9.71237 93.8072 10.4016L95.1117 11.9176ZM97.8131 9.28052C96.723 8.50594 95.6283 7.82851 94.5288 7.24985L93.5973 9.01969C94.6118 9.55361 95.631 10.1835 96.6547 10.9109L97.8131 9.28052ZM94.848 8.75441C95.6035 7.79742 96.4464 7.09709 97.3729 6.62786L96.4692 4.84366C95.2539 5.4592 94.1915 6.35821 93.2782 7.51512L94.848 8.75441ZM97.382 6.62317C98.2774 6.15801 99.4108 5.90132 100.822 5.90132V3.90132C99.1736 3.90132 97.7063 4.20093 96.46 4.84836L97.382 6.62317ZM100.822 5.90132C102.845 5.90132 104.139 6.34527 104.907 7.04031L106.249 5.55771C104.959 4.38916 103.082 3.90132 100.822 3.90132V5.90132ZM104.918 7.04972C105.672 7.71354 106.143 8.80872 106.143 10.5546H108.143C108.143 8.46215 107.571 6.72024 106.239 5.54829L104.918 7.04972ZM106.143 10.5546V13.0371H108.143V10.5546H106.143ZM101.26 7.57285C100.44 7.57285 99.6739 7.70963 98.983 8.01079L99.7822 9.84418C100.176 9.67249 100.662 9.57285 101.26 9.57285V7.57285ZM98.983 8.01079C98.3015 8.30788 97.7015 8.74942 97.1834 9.31764L98.6613 10.6651C99.0055 10.2877 99.379 10.0199 99.7822 9.84418L98.983 8.01079ZM98.0382 10.9847C98.8205 10.8934 99.8218 10.8454 101.051 10.8454V8.84536C99.7779 8.84536 98.693 8.89469 97.8065 8.99813L98.0382 10.9847ZM101.051 10.8454C101.586 10.8454 102.191 10.7912 102.651 10.5151L101.622 8.80012C101.663 8.77553 101.653 8.79319 101.538 8.81308C101.431 8.83161 101.272 8.84536 101.051 8.84536V10.8454ZM102.651 10.5151C103.074 10.2614 103.449 9.81449 103.449 9.17781H101.449C101.449 9.08523 101.477 8.9834 101.533 8.89752C101.583 8.82075 101.631 8.79477 101.622 8.80012L102.651 10.5151ZM103.449 9.17781C103.449 8.49537 102.988 8.08153 102.607 7.87824L101.666 9.64295C101.685 9.65314 101.632 9.63009 101.571 9.54834C101.499 9.45251 101.449 9.3202 101.449 9.17781H103.449ZM102.651 7.9031C102.224 7.64712 101.726 7.57285 101.26 7.57285V9.57285C101.395 9.57285 101.489 9.58425 101.551 9.59759C101.613 9.61088 101.63 9.62332 101.622 9.61809L102.651 7.9031ZM99.0697 14.204C99.9759 14.204 100.825 14.0334 101.6 13.6721L100.754 11.8597C100.276 12.0825 99.7211 12.204 99.0697 12.204V14.204ZM101.616 13.6643C102.384 13.2887 103.011 12.7528 103.37 12.0137L101.571 11.1399C101.457 11.3743 101.221 11.6312 100.737 11.8675L101.616 13.6643ZM103.47 11.5768V11.0344H101.47V11.5768H103.47ZM102.023 10.14C101.764 10.2695 101.468 10.3772 101.13 10.4587L101.599 12.4029C102.068 12.2897 102.509 12.1331 102.917 11.9289L102.023 10.14ZM101.162 10.4515C100.783 10.5298 100.317 10.61 99.7593 10.6917L100.049 12.6706C100.632 12.5853 101.139 12.4987 101.567 12.4101L101.162 10.4515ZM99.7397 10.6947L98.9887 10.8199L99.3175 12.7927L100.069 12.6675L99.7397 10.6947ZM98.9604 10.825C98.5173 10.9121 98.0726 11.0494 97.7155 11.2917C97.3249 11.5568 96.9849 11.9951 96.9849 12.599H98.9849C98.9849 12.688 98.9591 12.781 98.9121 12.8582C98.8699 12.9277 98.8301 12.9524 98.8385 12.9467C98.8478 12.9403 98.8883 12.9158 98.9784 12.8836C99.0668 12.8521 99.1872 12.8187 99.3459 12.7875L98.9604 10.825ZM96.9849 12.599C96.9849 12.8539 97.0437 13.1247 97.1944 13.3767C97.3442 13.6274 97.5524 13.8053 97.7691 13.9261C98.1721 14.1509 98.6479 14.204 99.0697 14.204V12.204C98.9325 12.204 98.838 12.1942 98.7779 12.183C98.7158 12.1715 98.7132 12.1626 98.7432 12.1794C98.779 12.1994 98.8516 12.2512 98.9111 12.3506C98.9713 12.4514 98.9849 12.5458 98.9849 12.599H96.9849ZM113.718 8.15563L114.718 8.17229L114.719 8.15355L114.718 8.1348L113.718 8.15563ZM113.739 16.5V17.5H114.77L114.739 16.4702L113.739 16.5ZM108.816 16.5L107.816 16.4912L107.807 17.5H108.816V16.5ZM108.837 14.1427L107.837 14.132L107.837 14.1339L108.837 14.1427ZM108.837 2.48146L107.837 2.49072L107.837 2.49282L108.837 2.48146ZM108.816 0.228477V-0.771523H107.807L107.816 0.237736L108.816 0.228477ZM113.739 0.228477L114.739 0.24256L114.754 -0.771523H113.739V0.228477ZM112.719 8.13897C112.705 8.98215 112.698 10.2685 112.698 11.994H114.698C114.698 10.2706 114.705 8.99799 114.718 8.17229L112.719 8.13897ZM112.698 11.994C112.698 14.0672 112.711 15.582 112.74 16.5298L114.739 16.4702C114.712 15.5544 114.698 14.0653 114.698 11.994H112.698ZM113.739 15.5H108.816V17.5H113.739V15.5ZM109.816 16.5088L109.837 14.1516L107.837 14.1339L107.816 16.4912L109.816 16.5088ZM109.837 14.1535C109.865 11.5656 109.879 9.56566 109.879 8.15563H107.879C107.879 9.55487 107.865 11.5464 107.837 14.132L109.837 14.1535ZM109.879 8.15563C109.879 6.81484 109.865 4.91901 109.837 2.47009L107.837 2.49282C107.865 4.93927 107.879 6.82622 107.879 8.15563H109.879ZM109.837 2.4722L109.816 0.219218L107.816 0.237736L107.837 2.49072L109.837 2.4722ZM108.816 1.22848H113.739V-0.771523H108.816V1.22848ZM112.739 0.214394C112.712 2.19158 112.698 3.80999 112.698 5.06821H114.698C114.698 3.82312 114.711 2.21504 114.739 0.24256L112.739 0.214394ZM112.698 5.06821C112.698 6.46015 112.705 7.49795 112.719 8.17646L114.718 8.1348C114.705 7.47821 114.698 6.45773 114.698 5.06821H112.698ZM129.727 5.08907L130.401 5.8282L132.309 4.08907H129.727V5.08907ZM124.554 9.80364L123.88 9.06451L123.228 9.65899L123.737 10.3801L124.554 9.80364ZM129.498 16.5V17.5H131.546L130.286 15.8849L129.498 16.5ZM123.97 16.5L123.12 17.0281L123.414 17.5H123.97V16.5ZM122.906 14.7894L122.049 15.3054L122.053 15.3115L122.057 15.3175L122.906 14.7894ZM121.529 12.5364L122.371 11.9974L121.73 10.9961L120.854 11.7989L121.529 12.5364ZM119.797 14.1219L119.122 13.3843L118.797 13.6816V14.1219H119.797ZM119.797 16.5V17.5H120.797V16.5H119.797ZM114.999 16.5L114 16.4579L113.956 17.5H114.999V16.5ZM114.999 0.270199V-0.729801H113.958L114 0.310774L114.999 0.270199ZM119.797 0.270199H120.797V-0.729801H119.797V0.270199ZM119.797 9.11523H118.797V11.5647L120.512 9.81509L119.797 9.11523ZM123.615 5.08907V4.08907H123.175L122.877 4.41406L123.615 5.08907ZM129.054 4.34994L123.88 9.06451L125.227 10.5428L130.401 5.8282L129.054 4.34994ZM123.737 10.3801C125.51 12.8937 127.168 15.1391 128.709 17.1151L130.286 15.8849C128.768 13.9391 127.13 11.7202 125.371 9.22714L123.737 10.3801ZM129.498 15.5H123.97V17.5H129.498V15.5ZM124.819 15.9719L123.755 14.2613L122.057 15.3175L123.12 17.0281L124.819 15.9719ZM123.762 14.2734C123.069 13.1218 122.602 12.3586 122.371 11.9974L120.687 13.0755C120.9 13.4096 121.352 14.1484 122.049 15.3054L123.762 14.2734ZM120.854 11.7989L119.122 13.3843L120.473 14.8594L122.204 13.2739L120.854 11.7989ZM118.797 14.1219V16.5H120.797V14.1219H118.797ZM119.797 15.5H114.999V17.5H119.797V15.5ZM115.999 16.5421C116.11 13.8853 116.166 11.1941 116.166 8.46854H114.166C114.166 11.1668 114.111 13.8299 114 16.4579L115.999 16.5421ZM116.166 8.46854C116.166 5.72911 116.11 2.9828 115.999 0.229623L114 0.310774C114.111 3.03707 114.166 5.75632 114.166 8.46854H116.166ZM114.999 1.2702H119.797V-0.729801H114.999V1.2702ZM118.797 0.270199V9.11523H120.797V0.270199H118.797ZM120.512 9.81509C121.868 8.43082 123.148 7.08048 124.353 5.76409L122.877 4.41406C121.69 5.71224 120.425 7.046 119.083 8.41538L120.512 9.81509ZM123.615 6.08907H129.727V4.08907H123.615V6.08907Z" fill="black" fill-opacity="0.2"/>
</svg>
